<?xml version="1.0" encoding="UTF-8"?><svg id="a" xmlns="http://www.w3.org/2000/svg" viewBox="0 0 2704 935.15"><defs><style>.b{fill:#122556;}.c{fill:#63dce7;}.d{fill:#f7c59a;}.e{fill:#15295a;}.f{fill:#fcb7a1;}.g{fill:#fccd57;}.h{fill:#f2e5d3;}.i{fill:#f2cdb7;}.j{fill:#151c4b;}.k{fill:#8dfaf9;}.l{fill:#fbecb9;}.m{fill:#cbcad1;}.n{fill:#e2dbcc;}.o{fill:#5ed7e6;}.p{fill:#162858;}.q{fill:#c6c2ca;}.r{fill:#fcb440;}.s{fill:#102755;}.t{fill:#e1dacb;}.u{fill:#263b78;}.v{fill:#f7f7ed;}.w{fill:#947287;}.x{fill:#89f8f5;}.y{fill:#8dfbf8;}.z{fill:#2a5196;}.aa{fill:#f0dfcf;}.ab{fill:#8efcf7;}.ac{fill:#f9f3dc;}.ad{fill:#fdb139;}.ae{fill:#f46b3d;}.af{fill:#162859;}.ag{fill:#284a8e;}.ah{fill:#fbe5a6;}.ai{fill:#fce198;}.aj{fill:#f8f5eb;}.ak{fill:#bcc1d2;}.al{fill:#f9bf46;}.am{fill:#f5b043;}.an{fill:#f16839;}.ao{fill:#f3e5d5;}.ap{fill:#f34d37;}.aq{fill:#f1603d;}.ar{fill:#395ea3;}.as{fill:#f8f6ec;}.at{fill:#f5f2ea;}.au{fill:#f5f4eb;}.av{fill:#e1dbcc;}.aw{fill:#f6f5ea;}.ax{fill:#8cf9f7;}.ay{fill:#ef613c;}</style></defs><g><path class="aj" d="M349.33,48.62c5.14-2.09,9.05-6.21,13.65-9.19,26.83,13.63,52.99,28.72,79.78,42.5,18.8,10.77,37.5,21.74,57.05,31.13,24.93,14.32,50.77,26.89,75.59,41.42,18.29,8.87,35.77,19.28,53.76,28.78,11.46,7.55,24.64,11.96,36.03,19.62,8.78,5.76,18.99,9.21,27.28,15.59-52.1,28.45-103.49,58.27-155.9,86.21-21.3,11.58-42.3,23.74-63.71,35.18-10.86,5.72-20.97,12.86-32.3,17.64-21.73-10.05-42.05-22.81-63.33-33.72-35.18-19.28-70.45-38.45-105.43-58.11-46.15-25.27-92.52-50.14-138.53-75.67-6.67-4.26-13.97-7.34-21.01-10.94l-.67-.38c13.6-10.16,29.77-15.83,44.07-24.8,10.52-5.58,20.85-11.51,31.19-17.39,12.84-5.99,24.98-13.29,37.21-20.38,21.56-11.03,42.1-23.94,63.63-35.02,7.72-2.66,14.05-7.95,21.46-11.24,13.47-6.89,26.13-15.43,40.16-21.24Z"/><path class="t" d="M112.28,179.07c7.03,3.6,14.33,6.67,21.01,10.94,46.01,25.52,92.37,50.4,138.53,75.67,34.98,19.66,70.25,38.83,105.43,58.11,21.28,10.92,41.6,23.67,63.33,33.72,11.33-4.78,21.44-11.92,32.3-17.64,21.4-11.44,42.41-23.6,63.71-35.18,52.41-27.93,103.8-57.75,155.9-86.21,.09,4.55,1.29,9.19,.45,13.72-4.6,3.58-10.05,5.81-15.16,8.54-.27,2.19-.5,4.39-.68,6.58-.86,8-.2,16.06-.65,24.08-1.58,2.77-4.93,3.83-7.5,5.45-14.95,7.45-29.5,15.63-43.9,24.05-47.82,25.74-95.79,51.22-142.66,78.67-11.28,6.4-23.62,10.9-34.42,18.11,.56,3.63,1.51,7.18,2.77,10.65,26.35-14.75,52.79-29.37,79.32-43.81,16.62-10.18,34.41-18.24,51.31-27.91,20.68-10.95,40.68-23.17,61.67-33.58,16.15-8.13,31.46-17.86,47.81-25.61l1.31-.65c.23,5.32,3.36,13.58-3.49,15.9-19.33,9.84-38.31,20.34-57.09,31.21-40.14,21.46-79.55,44.26-119.71,65.67-22.86,13.45-46.8,24.96-69.78,38.18-6.56-1.4-11.87-5.95-17.77-8.88-18.13-9.28-35.99-19.05-53.69-29.12-62.19-34.51-125.59-66.85-187.36-102.14-20.49-11.26-41.46-21.56-61.96-32.79-3.74-1.87-7.37-3.92-11.08-5.85-4.51-23.08-3.11-47.03,2.07-69.87Z"/><path class="at" d="M676.44,271.41c.45-8.02-.22-16.08,.65-24.08,1.82,8.4,.18,17.01,1.22,25.49,4.23,1.74,9.53,.32,12.52,4.6-16.35,7.75-31.65,17.48-47.81,25.61-20.99,10.41-40.99,22.63-61.67,33.58-16.91,9.68-34.69,17.73-51.31,27.91-26.53,14.44-52.97,29.06-79.32,43.81-1.26-3.47-2.21-7.01-2.77-10.65,10.81-7.21,23.15-11.71,34.42-18.11,46.87-27.45,94.84-52.93,142.66-78.67,14.41-8.42,28.96-16.6,43.9-24.05,2.57-1.62,5.92-2.68,7.5-5.45Z"/><path class="as" d="M111.41,262.31c4.01-1.58,5.25-7.23,9.87-7.52,20.5,11.22,41.48,21.53,61.96,32.79,61.76,35.29,125.16,67.63,187.36,102.14,17.7,10.07,35.56,19.84,53.69,29.12,5.9,2.93,11.21,7.48,17.77,8.88,22.99-13.22,46.92-24.73,69.78-38.18,3.02,2.18,.2,4.35-1.19,6.4,1.65,.58,3.42,.5,5.16,.5l.07,2.37c-2.19,1.64-4.93,2.55-6.82,4.55l-.2,2.05c-24.32,11.3-47.07,25.61-70.77,38.09-12.34,7.43-24.91,14.46-37.34,21.71-29.06-16.74-59.5-30.92-88.38-47.93-15.94-7.9-31.21-17.01-47.05-25.05-20.77-12.45-42.82-22.54-63.58-34.98-29.05-15.32-57.75-31.31-86.76-46.73-15.02-8.42-30.72-15.5-45.74-23.92l-1.01-.56c14.71-7.37,28.24-16.8,43.17-23.74Z"/><path class="av" d="M69.26,286.61c15.02,8.42,30.72,15.5,45.74,23.92,29.01,15.41,57.72,31.4,86.76,46.73,20.76,12.45,42.81,22.54,63.58,34.98,15.85,8.04,31.12,17.16,47.05,25.05,28.89,17.01,59.32,31.19,88.38,47.93,12.43-7.25,25-14.28,37.34-21.71,23.71-12.48,46.46-26.8,70.77-38.09,.13,14.95,.14,29.91,.11,44.87-11.12,4.19-20.9,11.04-31.28,16.69-22.54,12.28-45.11,24.51-67.77,36.6-.11,3.58,.85,7.01,2.32,10.27,21.33-11.28,42.36-23.22,63.65-34.64,10.72-6.35,21.67-12.27,33.08-17.28,.02,5.09-.02,10.2-.04,15.29-31.22,14.55-60.31,33.22-91.12,48.58-5.13,2.75-9.89,6.22-15.4,8.24-4.73,.02-8.76-3.02-12.82-5.05-12.55-7.5-26.01-13.26-38.63-20.61-39.33-20.25-77.77-42.18-116.69-63.22-31.6-16.08-62.55-33.38-93.85-50.05-19.8-12.01-40.9-21.74-60.74-33.65-4.15-3.67-11.26-3.17-14.15-8.06-2.37-12.54-2.75-25.49-1.73-38.18,1.73-9.53,3.22-19.14,5.43-28.6Z"/><path class="ar" d="M608.86,346.11c31.06-18.38,63.13-35,94.03-53.69,51.78,29.6,104.39,57.9,155.63,88.38-9.14,6.53-19.12,11.64-28.92,17.05-30.36,17.81-61.28,34.6-91.8,52.12-24.28,13.6-48.26,27.75-72.7,41.06-31.91-19.5-65.2-36.64-97.43-55.58-19.42-10.86-38.78-21.94-58.6-32.09,1.89-2,4.62-2.91,6.82-4.55,30.68-18.11,61.89-35.29,92.97-52.72Z"/><path class="v" d="M79.71,361.45c19.84,11.91,40.94,21.64,60.74,33.65,31.3,16.67,62.25,33.98,93.85,50.05,38.92,21.04,77.36,42.97,116.69,63.22,12.63,7.36,26.08,13.11,38.63,20.61,4.06,2.03,8.09,5.07,12.82,5.05,5.5-2.01,10.27-5.49,15.4-8.24,30.81-15.36,59.89-34.03,91.12-48.58-.02,3.26,0,6.53,.04,9.8-31.98,15.5-62.52,33.8-94.1,50.04-7.19,3.54-13.54,8.74-21.13,11.42-9.44-2.99-17.36-9.5-26.44-13.44-20.49-9.62-39.64-21.74-59.87-31.85-33.81-17.63-67.03-36.37-100.79-54.07-46.13-26.19-93.04-51.03-140.14-75.38,4.28-4.24,9.46-7.52,13.2-12.3Z"/><path class="n" d="M66.5,373.75c47.1,24.35,94.01,49.19,140.14,75.38,33.76,17.7,66.98,36.44,100.79,54.07,20.23,10.11,39.39,22.23,59.87,31.85,9.08,3.94,17,10.45,26.44,13.44,7.59-2.68,13.94-7.88,21.13-11.42,31.58-16.24,62.12-34.53,94.1-50.04,.02,14.84,.05,29.68,.05,44.5-27.05,14.53-53.89,29.42-81.12,43.63-8.22,4.6-16.6,8.96-24.35,14.35,.54,3.53,1.35,7.03,2.59,10.41,15.25-10.63,33.18-16.46,48.63-26.73,8.96-5.67,18.89-9.55,27.86-15.18,8.38-5.23,17.23-9.64,26.39-13.36-.04,4.23-.09,8.47-.2,12.72-36.42,19.14-72.12,39.6-108.35,59.12-2.61,1.17-5.41,3.96-8.31,1.82-17.37-9.21-34.55-18.81-52.03-27.84-20.32-11.1-40.9-21.69-61.24-32.73-33.63-17.34-66.42-36.26-100.02-53.69-24.77-13.65-49.75-26.96-74.66-40.34-3.08-1.82-6.24-3.49-9.6-4.64-9.24-5.13-18.54-10.34-27.52-15.97-4.82-2.73-3.35-8.97-4.39-13.51-2.77-18.72,.52-37.43,3.78-55.83Z"/><path class="b" d="M829.6,397.85c9.8-5.41,19.78-10.52,28.92-17.05l1.13-.72c-.25,129.75-.56,259.57,.04,389.37-.52,5.02,1.01,10.67-.76,15.34-63.94,36.01-128,71.78-192.47,106.87-3.15-18.36-.74-37.12-.81-55.63-.22-46.74,.02-93.49-.07-140.23-.52-25.79,.72-51.6-.76-77.36-.49-25.18,.74-50.34-.11-75.5-.02-17.3-.43-34.62,.38-51.91,24.44-13.31,48.42-27.46,72.7-41.06,30.52-17.52,61.44-34.32,91.8-52.12Z"/><path class="ag" d="M666.47,891.67c-3.14-18.36-.73-37.12-.81-55.63-.21-46.74,.02-93.49-.07-140.23-.52-25.79,.72-51.6-.75-77.36-.49-25.18,.73-50.34-.11-75.5-.02-17.31-.43-34.63,.38-51.91-31.91-19.5-65.2-36.64-97.43-55.58-19.43-10.86-38.78-21.94-58.6-32.08l-.2,2.05c.13,14.94,.15,29.91,.11,44.87-.04,3.87,0,7.75,0,11.64,.02,5.09-.02,10.2-.04,15.29-.01,3.25,0,6.53,.04,9.8,.02,14.84,.05,29.68,.05,44.5v13.13c-.03,4.22-.09,8.47-.19,12.71-.71,14.1,.75,28.26-.69,42.32,.69,1.98,1.15,4.01,1.39,6.12-.4,31.15,.02,62.34-.13,93.5,.38,35.58-.65,71.19,.27,106.77,5.74,2.79,11.55,5.48,17.02,8.79,10.34,6.6,21.35,12.04,32.03,18.06,33.78,18.98,67.57,37.95,101.42,56.78,2.05,.96,3.96,2.74,6.4,2.47l-.09-.51Zm-109.39-104.08c.22,5-5.64,8.81-10.12,6.47-7.36-3.47-11.08-11.67-13.01-19.15-1.24-4.55,.35-11.6,6.03-11.89,11.03,1.31,17.97,14.14,17.1,24.57Zm33.71-22.48c-7.72,.37-13-6.84-15.88-13.15-2.25-4.93-3.78-12.16,.9-16.13,7.71-3.76,15.73,4.13,18.76,10.84,2.95,5.77,4.15,16.24-3.78,18.44Zm42.19,69.15c-2.71,5.69-10.91,3.78-14.15-.45-6.64-6.27-12.73-18.47-5.22-26.13,5.51-3.42,11.59,1.62,14.82,5.95,4,5.79,7.67,13.69,4.55,20.63Z"/><path class="ax" d="M531.94,446.25c2.05,1.06,4.12,2.16,6.13,3.38,14.87,9.12,30.68,16.6,45.61,25.67,13.49,7.37,26.46,15.67,40.09,22.79,6.22,3.33,12.45,6.67,18.27,10.67,.13,5.4,.18,10.83-.02,16.24-8.09-2.86-15.23-7.72-22.75-11.71-23.9-14.03-48.2-27.32-72.41-40.77-5.07-2.84-10.13-5.68-15.18-8.53-.07-5.58-.09-11.15,.2-16.71l.05-1.03Z"/><path class="ag" d="M524.02,457.93c-.59-5.02,4.84-7.59,7.86-10.65-.29,5.56-.27,11.13-.2,16.71,5.05,2.84,10.11,5.68,15.18,8.53-.49,4.23-.77,8.71-3.65,12.1-7.37-3.94-14.51-8.26-21.74-12.45,3.9-3.78,2.39-9.41,2.55-14.24Z"/><path class="au" d="M477.71,466.99c10.38-5.65,20.16-12.5,31.28-16.69-.04,3.87,0,7.75,0,11.64-11.4,5.02-22.36,10.94-33.08,17.28-21.3,11.42-42.32,23.36-63.65,34.64-1.47-3.26-2.43-6.69-2.32-10.27,22.66-12.09,45.23-24.32,67.77-36.6Z"/><path class="o" d="M519.06,470.91l2.41,1.26c7.23,4.19,14.37,8.51,21.74,12.45,30.13,17.34,60.47,34.28,90.67,51.49,6.38,3.47,12.5,7.45,19.17,10.4,.07,1.44,.22,4.28,.29,5.72-3.29-1.62-6.49-3.4-9.62-5.27-4.95-2.97-10.04-5.63-15.07-8.44-28.13-16.15-56.31-32.19-84.75-47.81-8.2-4.84-16.6-9.35-24.78-14.19-.02-1.4-.04-4.21-.05-5.61Z"/><path class="k" d="M531.49,498.23c1.26,.5,3.76,1.53,5,2.03,28.67,17.12,58.22,32.72,87,49.66,6.06,3.49,12.36,6.58,18.13,10.58-.07,5.65-.04,11.31-.18,16.96-4.03-2.09-7.95-4.3-11.82-6.62-32.09-17.32-63.15-36.48-95.45-53.36-.68-.34-2.03-.99-2.72-1.31-.18-5.99-.22-11.96,.04-17.93Z"/><path class="c" d="M519.22,523.11c4.05,1.56,7.79,3.79,11.46,6.15,29.48,17.45,59.55,33.87,89.25,50.97,10.22,5.45,20.16,11.4,30.29,17.03,2.03,1.13,3.02,2.99,2.97,5.54-3.04,.67-5.2-1.92-7.66-3.08-24.87-14.06-49.8-28-74.71-42.01-12.01-6.91-24.06-13.74-36.13-20.54-5.25-2.84-10.31-5.99-15.5-8.9,.02-1.28,.04-3.87,.05-5.16Z"/><path class="aw" d="M427.93,575.16c27.23-14.21,54.07-29.1,81.12-43.63v13.13c-9.15,3.72-18,8.13-26.39,13.36-8.97,5.63-18.9,9.51-27.86,15.18-15.45,10.27-33.38,16.1-48.63,26.73-1.24-3.38-2.05-6.89-2.59-10.41,7.75-5.4,16.13-9.75,24.35-14.35Z"/><path class="y" d="M531.02,550.26l1.15,.47c7.84,3.88,15.36,8.4,23.06,12.55,28.54,16.04,57.28,31.8,85.52,48.38l1.55,1.03c-.05,5.54,0,11.1-.18,16.64-2.45-.38-4.62-1.46-6.62-2.81-34.57-20.13-69.44-39.75-104.46-59.05,.07-5.74-.14-11.49-.02-17.21Z"/><path class="ag" d="M531.04,567.48c35.02,19.3,69.89,38.92,104.46,59.05-12,3.44-23.11-4.42-33.09-10.04-10.16-7.5-20.95-14.23-32.61-19.21-13.81-5.59-26.53-13.85-37.16-24.32-1.73-1.42-2.27-3.26-1.6-5.49Z"/><path class="ak" d="M102.37,571.97c6.55,4.1,10.43,11.04,15.94,16.33,9.84,10.14,18.97,20.94,28.65,31.24,.49,.5,1.47,1.55,1.96,2.05-1.42,2.77-2.84,5.54-4.26,8.33l-1.94-2.09c-14.14-15.11-27.57-30.86-41.89-45.83,.11-3.4,.67-6.76,1.55-10.04Z"/><path class="z" d="M508.16,599.69c-38.63,21.87-77.93,42.5-116.96,63.64l-1.37,.75,.35-1.53c-9.75-4.58-19.07-10.09-29.14-13.99-2.81-1.84-5.67-3.58-8.62-5.16-20.73-10.67-40.91-22.32-61.52-33.26-13.93-7.97-28.31-15.03-42.24-22.98-13.59-6.28-26.16-14.48-39.58-21.08-13.26-7.27-27-13.64-39.97-21.42-9.29-4.18-17.98-9.52-27.01-14.2-5.92-3-11.53-6.58-17.27-9.92-20.61-10.79-41.17-21.71-61.22-33.51-2.75-2.03-5.38-4.21-8.04-6.33,13.08-7.11,26.46-13.71,39.06-21.64,3.37,1.15,6.53,2.83,9.61,4.64,24.91,13.38,49.89,26.69,74.66,40.34,33.6,17.43,66.38,36.35,100.02,53.69,20.34,11.04,40.91,21.64,61.24,32.74,17.48,9.02,34.66,18.63,52.03,27.84,2.9,2.14,5.7-.65,8.31-1.82,36.22-19.51,71.93-39.98,108.35-59.12-.71,14.1,.75,28.26-.69,42.32Z"/><path class="aa" d="M192.87,606.96l2.36,.36c8.08,4.23,16.15,8.44,23.97,13.15-9.93,8.18-21.53,16.69-24.59,29.93-.4,.58-1.22,1.73-1.62,2.3,.23-15.23,1.1-30.52-.13-45.74Z"/><path class="m" d="M101,611.9c9.91,7.66,17.12,18.18,26.31,26.65,8,9.39,17.16,17.7,25.43,26.85l1.08,1.15c-.99,2.1-1.96,4.23-2.95,6.37-3.88-4.6-8.22-8.81-12.01-13.47-4.08-4.87-8.49-9.42-12.82-14.05-8.13-9.23-16.44-18.26-25.23-26.82,.05-1.67,.14-5.02,.2-6.69Z"/><path class="aq" d="M171.09,616.61c8.83,5.09,14.73,13.99,18.26,23.35,1.12,8.13,.02,16.37,.13,24.55-5.63-6.78-11.6-13.24-17.37-19.86l-.52-.56c4.17-8.76,.41-18.42-.49-27.48Z"/><path class="ae" d="M219.2,620.46c10.81,4.86,21.03,10.9,31.46,16.53-4.35,15.9,.68,34.3,12.95,45.34,5.92-10.85,15.18-21.01,28.02-22.86,1.08,.63,3.2,1.91,4.26,2.54-4.78,4.64-5.95,11.44-7.1,17.72-1.64,13.54,1.38,27.46,7.61,39.55,1.62,3.26,3.87,6.33,7.27,7.91,4.93-4.35,7.52-10.59,7.18-17.16,4.21,.67,4.41,5.56,5.9,8.74,5.45,16.64,9.12,35.5,2.73,52.37-5.05,10.22-13.85,18.33-24.96,21.4-5.31,2.64-10.47-1.19-14.95-3.67l-1.31-.76c4.39-2.99,9.03-6.4,10.59-11.76,3.56-10.32-1.62-20.68-3.83-30.7,.67-15.59-6.8-30.02-16.62-41.64-1.49-1.47-3.18-2.7-5.04-3.67-.23,6.19,.58,12.39,0,18.58-.38,4.62-5,9.73-9.93,7.86-4.62-4.33-6.26-10.83-9.98-15.83-8.99-12.68-15.92-26.94-18.09-42.45-5.94,6.31-7.57,15.36-11.37,22.97-4.26-5.14-9.19-9.66-13.94-14.32-3.69-3.65-7.1-7.57-10.02-11.87,1.13-3.53,1.37-7.21,1.76-10.85,.31-.45,.9-1.31,1.21-1.76,.4-.58,1.22-1.73,1.62-2.3,3.06-13.24,14.66-21.74,24.59-29.93Z"/><path class="q" d="M144.65,629.92c1.42-2.79,2.84-5.56,4.26-8.33,7.48,7.57,14.93,15.18,22.66,22.5l.52,.56c-2.73,1.96-5.41,3.97-8.08,6.03l-.58-.61c-6.19-6.78-12.54-13.42-18.8-20.14Z"/><path class="ao" d="M263.61,682.33c-12.27-11.04-17.3-29.44-12.95-45.34,13.42,7.93,27.48,14.68,40.97,22.48-12.84,1.85-22.1,12.01-28.02,22.86Z"/><path class="i" d="M164.02,650.68c2.66-2.05,5.34-4.06,8.08-6.03,5.77,6.62,11.74,13.08,17.37,19.86,.14,.2,.41,.59,.56,.79,2.91,4.3,6.33,8.22,10.02,11.87-1.51,2.25-3,4.51-4.48,6.78-3.02-3-6.01-6.03-8.81-9.19-7.91-7.72-15.41-15.79-22.73-24.08Z"/><path class="an" d="M152.75,665.41c3.62-5.09,7.23-10.16,10.7-15.34l.58,.61c7.32,8.29,14.82,16.37,22.73,24.08-1.21,3.99-2.01,8.11-1.98,12.32-.81-1.87-1.64-3.72-2.48-5.54-3.85,1.24-5.77,4.98-8.09,7.99-6.91-7.55-13.47-15.41-20.38-22.97l-1.08-1.15Z"/><path class="h" d="M295.89,662.01c1.24,.7,2.52,1.38,3.79,2.07,11.83,5.94,24.84,12.32,30.05,25.45,1.44,3.08,2.79,6.24,3.88,9.48,.9,26.51,.18,53.06,.36,79.59-4.8-2.57-9.66-5.04-14.51-7.45,6.38-16.87,2.72-35.74-2.73-52.37-1.49-3.18-1.69-8.08-5.9-8.74,.34,6.56-2.25,12.81-7.18,17.16-3.4-1.58-5.65-4.66-7.27-7.91-6.22-12.09-9.24-26.01-7.61-39.55,1.15-6.28,2.32-13.08,7.1-17.72Z"/><path class="s" d="M526.71,814.87c-15.2,7.74-29.63,16.91-44.82,24.66-30.42,15.85-60.65,32.07-90.87,48.29-1.04-1.65-2.08-3.27-3.13-4.89,2.54-11.65,.79-23.63,2.63-35.34-1.26-7.99-.96-16.06-.47-24.08,.76-42.04,.63-84.07,.38-126.1-.15-3.22-.58-6.4-.9-9.57,.18-7.91-.92-15.88,.3-23.76l1.37-.75c39.03-21.14,78.33-41.77,116.96-63.64,.69,1.98,1.15,4.01,1.39,6.12-.4,31.15,.02,62.34-.13,93.5,.38,35.58-.65,71.19,.27,106.77,5.74,2.79,11.55,5.48,17.02,8.79Z"/><path class="d" d="M153.82,666.56c6.91,7.55,13.47,15.41,20.38,22.97l-.45,.59c-1.01,1.28-2.01,2.55-3.04,3.83-6.44-6.55-12.77-13.24-18.97-20.02l-.86-1.01c.99-2.14,1.96-4.26,2.95-6.37Z"/><path class="al" d="M213.99,691.49c3.79-7.61,5.43-16.65,11.37-22.97,2.18,15.5,9.1,29.77,18.09,42.45,3.72,5,5.36,11.49,9.98,15.83,4.93,1.87,9.55-3.24,9.93-7.86,.58-6.19-.23-12.39,0-18.58,1.85,.97,3.54,2.19,5.04,3.67,9.82,11.62,17.28,26.04,16.62,41.64-2.63,6.03-5.36,12.1-9.55,17.23-3.51,3.96-4.23,9.33-5.94,14.15,1.73-10.07,.07-20.32-3.92-29.64-6.3,3.78-13.38,10.49-21.1,5.92-10.18-3.96-6.17-16.3-6.67-24.6,2.88,1.55,7.54,6.69,9.8,1.87-1.71-2.75-3.76-5.25-5.79-7.75-8.85-9.8-17.57-19.71-26.37-29.59-.36-.45-1.12-1.31-1.49-1.76Z"/><path class="ag" d="M538.14,673.07c6.64-2.73,13.18,2.52,19.24,4.82,5.4,5.49,8.88,14.96,4.32,22.07-5.45,8.62-19.62,9.53-24.8,.11-1.4-5.49-2.82-10.99-3.85-16.55,.99-3.63,2-8.09,5.09-10.45Zm1.78,3.47c-6.92,6.13-1.55,16.58,4.05,21.71,3.29,3.88,11.01,3.4,11.6-2.48,1.26-8.53-5.67-21.39-15.65-19.23Z"/><path class="ay" d="M151.74,673.93c6.21,6.78,12.54,13.47,18.97,20.02-1.17,7.07-2.79,14.62-.09,21.55,1.87,4.95,3.69,9.96,4.26,15.27-17.45-9.62-25.34-31.01-24.91-50.05,.5-2.28,1.13-4.55,1.76-6.78Z"/><path class="ap" d="M184.78,687.08c-.04-4.21,.77-8.33,1.98-12.32,2.81,3.17,5.79,6.19,8.81,9.19,4.82,4.6,8.87,9.95,13.24,15-3.02,1.71-6.51,4.93-10.16,3.09-3.99-3.33-7.72-6.94-11.96-9.93-.61-1.69-1.24-3.38-1.91-5.04Z"/><path class="x" d="M539.92,676.54c9.98-2.16,16.91,10.7,15.65,19.23-.59,5.88-8.31,6.37-11.6,2.48-5.59-5.13-10.97-15.58-4.05-21.71Z"/><path class="f" d="M200.05,677.17c4.75,4.66,9.68,9.17,13.94,14.32,.38,.45,1.13,1.31,1.49,1.76-1.35,2.41-2.7,4.86-4.01,7.32-.67-.41-2-1.22-2.66-1.62-4.37-5.05-8.42-10.4-13.24-15,1.47-2.27,2.97-4.53,4.48-6.78Z"/><path class="g" d="M174.2,689.53c2.32-3,4.24-6.74,8.09-7.99,.85,1.82,1.67,3.67,2.48,5.54,.67,1.65,1.29,3.35,1.91,5.04,1.1,3.81,1.33,7.84,.11,11.67-4.87-4.05-8.72-9.1-13.04-13.67l.45-.59Z"/><path class="ag" d="M617.42,688.66c-.47-3.31,3.09-6.49,6.3-4.89,7.3,3.27,11.06,12.41,7.82,19.89-8.72,3-14.93-7.43-14.12-15Z"/><path class="ah" d="M170.71,693.95c1.03-1.28,2.03-2.55,3.04-3.83,4.32,4.57,8.17,9.62,13.04,13.67,8.17,7.07,15.56,14.96,23.42,22.39,5.25-2.43,9.03-6.96,11.46-12.12,3.2,4.1,5.99,8.96,10.67,11.56,3.56,1.94,6.8-.72,9.51-2.79,2.03,2.5,4.08,5,5.79,7.75-2.27,4.82-6.92-.32-9.8-1.87,.5,8.31-3.51,20.65,6.67,24.6,7.72,4.57,14.8-2.14,21.1-5.92,3.99,9.32,5.65,19.57,3.92,29.64-.61,1.78-1.24,3.56-1.91,5.34-11.46-6.85-23.65-12.28-35.34-18.65,.16-2.09,.32-4.24-1.04-5.95-5.74-9.66-11.78-19.33-19.91-27.18-2.21-2.21-5.32-2.97-8.09-4.1,.29,1.49,.59,3,.9,4.51-3.2,4.06-4.98,8.92-5.7,14.03-3.97-2.19-7.77-4.64-11.73-6.8-.47-8.13-2.43-16.71,1.55-24.3-5.34-7.09-10.94-14.03-17.54-20Z"/><path class="am" d="M186.68,692.12c4.24,2.99,7.97,6.6,11.96,9.93,3.65,1.83,7.14-1.38,10.16-3.09,.67,.4,2,1.21,2.66,1.62,4.28,3.76,6.98,8.87,10.2,13.49-2.43,5.16-6.21,9.69-11.46,12.12-7.86-7.43-15.25-15.32-23.42-22.39,1.22-3.83,.99-7.86-.11-11.67Z"/><path class="ad" d="M170.71,693.95c6.6,5.97,12.19,12.91,17.54,20-3.97,7.59-2.01,16.17-1.55,24.3-4.21-2.09-8.15-4.59-11.82-7.48-.58-5.31-2.39-10.32-4.26-15.27-2.7-6.92-1.08-14.48,.09-21.55Z"/><path class="l" d="M211.47,700.57c1.31-2.46,2.66-4.91,4.01-7.32,8.8,9.87,17.52,19.78,26.37,29.59-2.72,2.07-5.95,4.73-9.51,2.79-4.68-2.61-7.46-7.46-10.67-11.56-3.22-4.62-5.92-9.73-10.2-13.49Z"/><path class="ag" d="M579.51,698.25c9.89-1.82,16.51,10.65,16.01,19.21-.54,5.41-7.27,6.35-10.99,3.62-4.59-3.47-8.38-8.63-8.65-14.53-.4-3.09,.36-7.09,3.63-8.29Z"/><path class="ag" d="M619.04,716.16c5.14,.07,10.63,.74,15.11,3.45,6.92,7.46,8.99,21.21,.49,28.33-4.77,2.07-11.42,6.06-15.88,1.42-7.1-5.45-8.71-15.27-8.11-23.65,1.89-3.74,4.35-7.91,8.4-9.55Zm-1.69,7.5c-4.23,4.6-1.42,11.92,1.78,16.39,2.91,4.32,9.48,9.75,14.17,4.57,2.9-7.39-.85-16.08-6.82-20.81-2.52-2.16-6.76-2.91-9.14-.14Z"/><path class="ab" d="M617.35,723.66c2.37-2.77,6.62-2.01,9.14,.14,5.97,4.73,9.71,13.42,6.82,20.81-4.69,5.18-11.26-.25-14.17-4.57-3.2-4.46-6.01-11.78-1.78-16.39Z"/><path class="u" d="M391.02,887.82c-1.04-1.65-2.08-3.27-3.13-4.89,2.54-11.65,.79-23.63,2.63-35.34-1.26-7.99-.96-16.06-.47-24.08,.76-42.04,.63-84.07,.38-126.1-.15-3.22-.58-6.4-.9-9.57,.18-7.91-.92-15.88,.3-23.76l.35-1.53c-9.75-4.58-19.07-10.09-29.14-13.99-2.81-1.84-5.67-3.58-8.62-5.16-20.73-10.67-40.91-22.32-61.52-33.26-13.93-7.97-28.31-15.03-42.24-22.98-13.59-6.28-26.16-14.48-39.58-21.08-13.26-7.27-27-13.64-39.97-21.42-9.29-4.18-17.98-9.52-27.01-14.2-5.92-3-11.53-6.58-17.27-9.92-20.61-10.79-41.17-21.71-61.22-33.51-2.75-2.03-5.38-4.21-8.04-6.33-.45,.68-1.37,2.05-1.82,2.73-.52,31.51-.21,63.04-.16,94.57-.34,43.4,.43,86.82-.52,130.2,5.11,2.59,10.05,5.49,15.07,8.26,6.69,3.72,13.26,7.62,20.13,11,25.45,12.59,49.78,27.34,75.27,39.9l-.02,.12c20.43,11.58,41.48,22.02,62.12,33.18,14.07,8.03,28.31,15.76,42.76,23.1,22.98,12.88,46.47,24.82,69.58,37.44,15.13,8.53,30.74,16.14,46.1,24.21,2.41,1.14,4.57,3.24,7.41,3.17l-.47-.76Zm-62.82-72.51c-3.26,2.24-7.39,1.85-11.12,2.28-3.16-1.91-8.11-2.93-8.83-7.14l-.97,.32c-3.97,.97-7.39-1.69-10.72-3.38-7.55-4.46-15.02-9.06-22.82-13.07-4.01-2.18-7.92-4.55-11.89-6.75-13.35-6.6-26.44-13.7-39.34-21.1-17.42-9.98-35.84-18.02-53.38-27.78-7.82-4.34-15.36-9.23-23.56-12.88l-.2-.94c-6.56-3.32-12.89-7.16-19.64-10.12l-.77-.42c-10.61-5.77-18.22-15.91-22.03-27.25-2.76-9.44-1.42-19.33-1.55-28.99,.18-13.18-.58-26.35-.58-39.5,.06-1.67,.15-5.01,.2-6.69,.07-9.37,.11-18.7-.23-28.05l.05-1.84c.11-3.4,.67-6.76,1.55-10.03,2.12-5.53,8.52-8.87,14.26-7.27,7.27,2.05,13.78,6.02,20.4,9.59,1.8,1,3.61,2.06,5.39,3.14,11.64,7.14,23.55,13.85,35.52,20.42,.76,.38,2.29,1.15,3.06,1.53,4.88,2.37,9.52,5.23,14.23,7.93,8.07,4.22,16.15,8.43,23.97,13.15,10.81,4.85,21.03,10.89,31.46,16.52,13.42,7.94,27.48,14.68,40.97,22.49,1.08,.63,3.2,1.9,4.27,2.53,1.24,.7,2.51,1.39,3.79,2.07,11.83,5.94,24.84,12.32,30.05,25.45,1.44,3.08,2.79,6.24,3.89,9.48,.9,26.51,.18,53.06,.36,79.59,.02,9.15-.2,18.31,.11,27.48-1.41,3.34-2.54,7.28-5.9,9.23Z"/><path class="ac" d="M203.23,726.51c2.77,1.13,5.88,1.89,8.09,4.1,8.13,7.84,14.17,17.52,19.91,27.18,1.37,1.71,1.21,3.87,1.04,5.95-.88-.56-2.66-1.64-3.54-2.19l-.85-.54c-5.94-11.4-14.75-20.94-23.76-29.98-.31-1.51-.61-3.02-.9-4.51Z"/><path class="ai" d="M198.43,745.05c.72-5.11,2.5-9.96,5.7-14.03,9.01,9.05,17.82,18.58,23.76,29.98-9.6-5.68-19.75-10.43-29.46-15.95Z"/><path class="e" d="M575.81,735.82c7.72-3.76,15.74,4.14,18.76,10.85,2.95,5.77,4.15,16.24-3.78,18.44-7.72,.38-13-6.83-15.88-13.15-2.25-4.93-3.78-12.16,.9-16.13Z"/><path class="r" d="M288.85,776.37c-1.57,5.36-6.21,8.77-10.6,11.76-3.5-2-7.12-3.78-10.63-5.74,.67-1.78,1.3-3.56,1.91-5.34,1.71-4.82,2.43-10.2,5.94-14.15,4.19-5.13,6.92-11.21,9.55-17.23,2.21,10.01,7.39,20.37,3.83,30.7Z"/><path class="af" d="M539.98,763.02c11.03,1.31,17.97,14.14,17.1,24.57,.22,5-5.65,8.81-10.13,6.47-7.36-3.47-11.08-11.67-13-19.15-1.24-4.55,.34-11.6,6.03-11.89Z"/><g><path class="w" d="M192.88,606.96c1.22,15.22,.35,30.5,.12,45.74-.3,.45-.9,1.31-1.2,1.76-.4,3.63-.63,7.32-1.77,10.85-.14-.2-.41-.6-.55-.8-.11-8.18,.98-16.42-.13-24.55-3.53-9.35-9.42-18.25-18.26-23.34,.9,9.06,4.66,18.72,.49,27.48-7.73-7.32-15.18-14.93-22.66-22.5-.49-.5-1.48-1.55-1.96-2.05-9.68-10.31-18.82-21.1-28.65-31.24-5.51-5.29-9.39-12.23-15.94-16.33,2.12-5.52,8.53-8.87,14.26-7.27,7.27,2.05,13.78,6.03,20.4,9.59,1.8,1.01,3.61,2.07,5.4,3.15,11.63,7.14,23.54,13.84,35.52,20.41,.75,.38,2.28,1.15,3.05,1.53,4.88,2.37,9.52,5.23,14.23,7.93l-2.35-.36Z"/><path class="w" d="M334.1,806.08c-1.4,3.35-2.54,7.28-5.9,9.23-3.26,2.25-7.39,1.85-11.12,2.28-3.16-1.91-8.11-2.93-8.83-7.14l-.97,.32c-3.97,.98-7.39-1.69-10.72-3.38-7.55-4.46-15.02-9.06-22.82-13.07-4.01-2.18-7.91-4.55-11.89-6.75-13.35-6.6-26.44-13.7-39.33-21.09-17.43-9.99-35.85-18.03-53.39-27.79-7.82-4.34-15.36-9.23-23.56-12.88l-.2-.94c-6.56-3.32-12.89-7.15-19.64-10.12l-.77-.42c-10.61-5.77-18.22-15.91-22.03-27.24-2.75-9.45-1.42-19.34-1.55-29,.18-13.18-.57-26.35-.57-39.49,8.79,8.56,17.1,17.59,25.23,26.81,4.33,4.63,8.74,9.18,12.82,14.05,3.8,4.66,8.13,8.87,12.02,13.47l.86,1.01c-.63,2.23-1.26,4.5-1.76,6.78-.43,19.05,7.46,40.43,24.91,50.05,3.67,2.9,7.61,5.4,11.82,7.49,3.95,2.15,7.75,4.6,11.72,6.79,9.71,5.53,19.86,10.27,29.46,15.96l.85,.54c.88,.56,2.66,1.63,3.54,2.19,11.69,6.37,23.89,11.8,35.34,18.65,3.51,1.96,7.13,3.74,10.63,5.74l1.32,.76c4.47,2.48,9.64,6.31,14.94,3.66,11.12-3.07,19.91-11.18,24.97-21.4,4.85,2.41,9.71,4.88,14.51,7.45,.02,9.15-.2,18.31,.11,27.48Z"/><path class="w" d="M163.45,650.07c-3.47,5.18-7.09,10.25-10.7,15.34-8.27-9.15-17.43-17.46-25.43-26.85-9.19-8.47-16.41-18.99-26.32-26.65,.08-9.37,.11-18.71-.23-28.06l.05-1.84c14.32,14.97,27.76,30.72,41.89,45.83,.49,.52,1.46,1.57,1.95,2.09,6.25,6.72,12.6,13.36,18.79,20.14Z"/></g><path class="ag" d="M575.82,786.4c3.08-2.54,7.43-1.06,10.14,1.29,6.17,5.27,10.63,13.13,10.68,21.37,.34,3.9-3,7.43-6.82,7.7-6.56-.56-11.01-6.22-14.19-11.4-3.17-5.59-5.43-14.12,.18-18.96Z"/><path class="p" d="M613.61,807.68c5.5-3.42,11.58,1.62,14.82,5.95,3.99,5.79,7.66,13.69,4.55,20.63-2.72,5.68-10.92,3.78-14.15-.45-6.64-6.28-12.73-18.47-5.22-26.13Z"/></g><g><g><path class="j" d="M1098.81,185.98c15.67-22.51,40.87-42.53,69.39-42.8,49.42-2.43,89.31,45.45,91.68,91.9,15.89,57.26-29.4,127.09-91.68,125.33-29.9,.61-49.81-23.06-67.46-43.58,2.76,39.66,2.21,79.38,3.25,119.15-18.26-.33-36.52-.22-54.77-.11,.39-96.48,1.16-192.95,.33-289.43,16.71-1.1,33.48-1.27,50.2-.06,.5,13.13,.28,26.42-.94,39.61Zm22.45,13.74c-24,26.09-23.17,68.4-4.85,97.58,17.71,24.22,57.26,25.15,76.67,2.48,24.33-27.58,21.02-71.65-2.15-98.9-7.61-3.03-15.22-6.18-21.57-11.42-16.6-1.77-35.8-3.59-48.1,10.26Z"/><path class="j" d="M1478.32,219.19c-1.32-29.9-19.96-56.87-47.05-69.23-45.62-17.65-106.74-4.19-129.74,42.09,1.33,17.43,26.2,21.07,38.78,12.96,7.94-13.84,25.54-15.22,39.5-19.14,15.94-5.18,33.98,1.82,43.46,15.34,2.87,12.24,2.38,24.93,1.71,37.5-39.55-11.19-87.59-10.92-119.75,17.88-12.14,20.52-22.84,48.54-6.62,70,19.14,33.76,66.63,43.57,99.07,23.72,11.58-5.02,16.99-18.98,30.01-21.13,2.04,9.54,.82,19.42,.44,29.18,17.04-2.59,36.57,4.47,51.79-5.19-4.02-44.57-.16-89.36-1.6-133.98Zm-83.51,100.61c-18.64,3.81-39,2.93-52.95-11.58-4.58-20.85,8.6-42.31,29.84-46.23,17.76-1.1,35.52-.71,53.28-.44,7.78,24.71-5.4,50.64-30.17,58.25Z"/><path class="j" d="M1577,185.87c18.7-25.37,49.76-48.43,82.96-41.59,21.29,2.98,42.42,12.03,55.99,29.4,26.64,35.47,36.63,84.89,17.1,126.1-10.2,32.93-38.83,58.64-73.53,62.77-19.31,5.74-33.92-10.76-51.91-13.57-6.56-10.81-15.67-19.53-23.94-28.9,1.43,39.5,1.93,79.16,1.21,118.71-16.99-.06-33.92-.44-50.86-.5-5.74-28.52-.99-58.08-2.54-86.99,2.59-68.23,1.88-136.63,0-204.76,17.65-1.1,35.41-2.15,53.06,.22,.94,13.51-.33,27.25-7.56,39.11Zm40.21,3.59c-34.31,14.62-36.79,59.96-28.85,91.29,6.07,27.58,38.94,42.92,64.26,30.95,32.27-11.75,41.59-52.79,32.21-82.74-6.95-28.74-39.44-47.16-67.63-39.5Z"/><path class="j" d="M2022.15,151.78c14.89-11.2,37.51-7.78,54.06-1.82-2.54,13.79-3.25,27.8-2.43,41.87,11.64-27.91,39.72-51.13,71.27-47.27,.06,15.33-.33,30.72,.77,46.11-16.27-.55-32.55,2.04-48.49,4.69-14.51,12.3-23.28,31.99-21.29,51.13,.99,37.29-1.54,74.63,.28,111.98-17.16-.55-34.26-.5-51.35-.06-3.75-68.73-2.15-137.79-2.81-206.63Z"/><path class="j" d="M1786.39,197.78c25.1-49.37,92.84-67.24,141.21-43.19,31.5,16.99,48.6,51.63,54.83,85.67,2.7,8.22,.5,16.6-2.32,24.44-14.73,4.14-30.12,1.49-45.12,2.15-36.24-.44-72.48,1.38-108.61-1.05-.44,18.87,7.61,39.77,25.76,48.05,21.18,12.3,51.35,8.66,67.46-10.37,11.91-18.59,33.37-.61,50.58-3.09,4.63,17.32-12.85,29.9-23.66,40.76-41.54,31.94-108.94,29.07-144.58-10.87-32.99-34.75-37.51-90.91-15.56-132.5Zm38.23,36.85c34.75-.11,69.5-.17,104.25,.33-.88-7.5-1.71-14.89-2.76-22.17-2.1-2.32-6.34-6.84-8.49-9.1-8.77-17.65-31.88-20.46-49.48-19.36-22.62,6.56-38.61,27.91-43.52,50.31Z"/></g><path class="j" d="M1609.67,644.67c7.83-29.46,38.12-49.09,67.9-47.99,4.8,14.89-1.6,30.72,2.48,46-14.01,2.7-28.24,4.03-42.2,6.78-15.22,7.06-25.54,23.28-26.09,39.99-1.71,40.82,.94,81.75-1.65,122.51-16.93-.11-33.87,.06-50.8,.61-2.92-70.61-2.92-141.98-.83-212.65,17.71,.11,36.46-4.47,53.01,4.14-2.21,13.35-2.81,26.97-1.82,40.6Z"/><path class="j" d="M1768.86,635.68c16.99-21.4,42.09-40.16,70.55-39.38,19.25,1.88,41.98,5.74,53.51,23.17,11.47,16.99,17.87,37.79,17.27,58.42-.39,45.01,.28,90.08,1.54,135.09-17.98-1.49-35.97-3.75-54-4.03,2.98-41.59,1.6-83.35,.83-124.94,1.38-33.98-48.32-54.44-71.99-30.56-11.47,10.32-15.61,26.37-16.44,41.21,.28,38.45,.28,76.89,.28,115.4-17.43-2.21-38.39,2.98-53.67-3.7-.66-66.63,.22-133.54,1.6-199.96,2.15-9.93,14.67-6.78,22.01-8.38,10.7-2.04,20.91,1.82,30.17,6.95-.66,10.15-1.21,20.41-1.65,30.72Z"/><path class="j" d="M1968.99,641.8c35.19-60.46,135.53-59.46,172.65-1.65,15.17,23.28,20.46,50.42,18.15,77.34-6.01,5.57-15.56,1.99-22.89,3.2-43.58-.11-87.15-.11-130.73-1.32-1.05,15.06,.66,32.49,13.85,42.25,22.23,20.35,55.6,12.14,79.76,.06,1.49-8.22,4.52-17.32,15.11-14.45,10.04,7.56,22.84,5.13,34.59,6.29,4.69,12.8-7.78,23.33-15.45,31.99-33.43,30.01-86.88,40.76-126.76,17.54-57.15-27.91-73.75-110.32-38.28-161.24Zm63.32,2.54c-14.51,10.59-30.39,26.09-26.53,45.84,34.37-.5,68.68,.11,103.04-.17,4.69-38.45-45.01-66.8-76.51-45.67Z"/><path class="j" d="M2441.94,597.89c18.7,1.77,38.12-.77,56.26,5.3,12.58,23.39,27.75,45.23,41.87,67.68,15.17-21.46,27.47-44.68,42.47-66.19,15.89-11.14,37.56-3.97,55.82-6.07-19.25,36.3-43.52,69.78-66.08,104.03,23.39,35.8,47.16,71.49,72.15,106.24-19.69,.22-39.38,1.16-59.02,.5-16.88-22.73-30.95-47.38-47.55-70.22-10.87,27.14-32.55,47.6-46.06,72.92-17.71,.39-35.41,.77-53.01-.22l-.66-6.62c22.62-34.53,48.32-66.97,70.61-101.77-23.5-34.31-47.66-68.57-66.8-105.58Z"/><path class="j" d="M1252.73,641.42c-15.72-27.03-47.28-45.57-78.88-40.99-22.84,1-44.46,12.3-59.03,29.73l-8.22,2.27c2.54-35.8,.67-71.82,1.6-107.73-16.49-.33-32.98-.06-49.36,1.1-5.13,93.39-3.92,187-4.31,280.55,1.27,1.49,3.86,4.47,5.13,5.96,15.78-.61,31.44-3.2,47.28-3.75l.77,2.37c.77-10.7,.49-21.52,.66-32.11,16-1.32,18.98,18.98,31.55,25.05,33.65,21.34,82.36,9.98,104.64-22.62,17.32-16.44,22.18-45.73,27.31-69.39-1.27-24.38-6.79-49.15-19.14-70.44Zm-125.33,114.07c-30.83-29.07-27.3-88.31,12.47-107.62,13.9-6.34,30.61-6.51,44.02,1.33,39.49,18.64,43.24,79.43,11.25,107.06-19.36,14.57-50.42,19.36-67.74-.77Z"/><path class="j" d="M1309.1,650.63c.94-17.38-3.09-35.47,3.92-51.91,16.05-.44,32.21-.88,48.21,1.38,.99,46.5,.17,93.06,1.6,139.61,3.36,14.4,15.67,23.44,28.3,28.41,4.69-.11,13.96-.22,18.64-.28,22.84-3.14,34.7-24.93,37.9-45.84,4.63-40.6-4.3-82.36,4.03-122.57,17.54-.5,35.19-.88,52.79,.22-1.71,70.61,.88,141.32,0,211.93-17.54-.5-35.08-.28-52.62,.11,.83-12.85,2.43-25.65,2.7-38.5-15.94,19.2-35.63,38.5-61.84,40.98-34.26,2.32-73.81-17.21-80.76-53.51-5.41-36.41-2.32-73.42-2.87-110.05Z"/><path class="j" d="M2322.85,647.1c-14.12-.33-28.41-1.66-42.42,.88-10.59,3.48-16.44,14.12-23.83,21.68-6.4,45.56-1.98,92.34-2.31,138.4-18.26,1.43-36.58,.44-54.83,.77-1.38-50.86-.83-101.77-.45-152.68,.72-18.65-1.1-37.62,2.98-55.94,16.33-.99,34.37-4.91,49.43,3.59-.28,13.18-1.88,26.59,.82,39.66,8.39-29.62,39.28-48.87,69.67-46.23,.5,16.55,.67,33.21,.94,49.87Z"/></g></svg>