<?xml version="1.0" encoding="UTF-8"?><svg id="a" xmlns="http://www.w3.org/2000/svg" viewBox="0 0 1024 1024"><defs><style>.b{fill:#122556;}.c{fill:#63dce7;}.d{fill:#f7c59a;}.e{fill:#15295a;}.f{fill:#fcb7a1;}.g{fill:#fccd57;}.h{fill:#f2e5d3;}.i{fill:#f2cdb7;}.j{fill:#8dfaf9;}.k{fill:#fbecb9;}.l{fill:#cbcad1;}.m{fill:#e2dbcc;}.n{fill:#5ed7e6;}.o{fill:#162858;}.p{fill:#c6c2ca;}.q{fill:#fcb440;}.r{fill:#102755;}.s{fill:#e1dacb;}.t{fill:#263b78;}.u{fill:#f7f7ed;}.v{fill:#947287;}.w{fill:#89f8f5;}.x{fill:#8dfbf8;}.y{fill:#2a5196;}.z{fill:#f0dfcf;}.aa{fill:#8efcf7;}.ab{fill:#f9f3dc;}.ac{fill:#fdb139;}.ad{fill:#f46b3d;}.ae{fill:#162859;}.af{fill:#284a8e;}.ag{fill:#fbe5a6;}.ah{fill:#fce198;}.ai{fill:#f8f5eb;}.aj{fill:#bcc1d2;}.ak{fill:#f9bf46;}.al{fill:#f5b043;}.am{fill:#f16839;}.an{fill:#f3e5d5;}.ao{fill:#f34d37;}.ap{fill:#f1603d;}.aq{fill:#395ea3;}.ar{fill:#f8f6ec;}.as{fill:#f5f2ea;}.at{fill:#f5f4eb;}.au{fill:#e1dbcc;}.av{fill:#f6f5ea;}.aw{fill:#8cf9f7;}.ax{fill:#ef613c;}</style></defs><path class="ai" d="M398.82,31.48c5.88-2.38,10.33-7.09,15.59-10.5,30.65,15.57,60.53,32.81,91.14,48.55,21.47,12.31,42.84,24.84,65.17,35.56,28.48,16.35,58,30.71,86.35,47.32,20.89,10.13,40.86,22.02,61.41,32.87,13.09,8.63,28.15,13.66,41.15,22.41,10.03,6.57,21.7,10.52,31.17,17.81-59.52,32.5-118.22,66.57-178.08,98.47-24.33,13.23-48.32,27.12-72.77,40.19-12.41,6.53-23.96,14.69-36.9,20.15-24.82-11.48-48.03-26.05-72.34-38.52-40.19-22.02-80.48-43.93-120.44-66.38-52.72-28.87-105.68-57.28-158.24-86.43-7.62-4.87-15.96-8.38-24-12.49l-.76-.43c15.53-11.61,34-18.08,50.34-28.33,12.02-6.37,23.81-13.15,35.63-19.87,14.67-6.84,28.54-15.18,42.51-23.28,24.63-12.59,48.1-27.35,72.69-40,8.81-3.04,16.05-9.08,24.51-12.84,15.39-7.87,29.85-17.63,45.88-24.26Z"/><path class="s" d="M128.04,180.49c8.03,4.11,16.37,7.62,24,12.49,52.55,29.15,105.52,57.57,158.24,86.43,39.96,22.46,80.25,44.36,120.44,66.38,24.3,12.47,47.52,27.04,72.34,38.52,12.94-5.46,24.49-13.62,36.9-20.15,24.45-13.07,48.45-26.96,72.77-40.19,59.87-31.91,118.57-65.97,178.08-98.47,.1,5.2,1.48,10.5,.51,15.68-5.26,4.09-11.48,6.64-17.32,9.76-.31,2.51-.58,5.01-.78,7.52-.99,9.14-.23,18.35-.74,27.51-1.81,3.16-5.63,4.38-8.57,6.23-17.07,8.51-33.69,17.85-50.15,27.47-54.63,29.4-109.42,58.51-162.96,89.86-12.88,7.31-26.98,12.45-39.32,20.69,.64,4.15,1.73,8.2,3.16,12.16,30.1-16.85,60.3-33.55,90.6-50.05,18.98-11.63,39.3-20.83,58.62-31.89,23.63-12.51,46.47-26.46,70.45-38.36,18.45-9.29,35.93-20.4,54.61-29.26l1.5-.74c.27,6.08,3.84,15.51-3.99,18.16-22.09,11.24-43.76,23.24-65.21,35.65-45.86,24.51-90.87,50.56-136.75,75.01-26.11,15.37-53.46,28.52-79.71,43.62-7.5-1.6-13.56-6.8-20.3-10.15-20.71-10.6-41.11-21.76-61.33-33.26-71.04-39.43-143.47-76.37-214.02-116.68-23.4-12.86-47.36-24.63-70.78-37.45-4.27-2.14-8.42-4.48-12.66-6.68-5.16-26.36-3.55-53.73,2.36-79.82Z"/><path class="as" d="M772.47,285.97c.51-9.16-.25-18.37,.74-27.51,2.08,9.59,.21,19.44,1.4,29.11,4.83,1.99,10.89,.37,14.3,5.26-18.68,8.85-36.16,19.97-54.61,29.26-23.98,11.9-46.82,25.85-70.45,38.36-19.31,11.05-39.63,20.26-58.62,31.89-30.3,16.5-60.51,33.2-90.6,50.05-1.44-3.97-2.53-8.01-3.16-12.16,12.35-8.24,26.44-13.37,39.32-20.69,53.54-31.35,108.33-60.46,162.96-89.86,16.46-9.62,33.08-18.96,50.15-27.47,2.94-1.85,6.76-3.06,8.57-6.23Z"/><path class="ar" d="M127.05,275.57c4.58-1.81,6-8.26,11.28-8.59,23.42,12.82,47.38,24.59,70.78,37.45,70.55,40.31,142.97,77.25,214.02,116.68,20.22,11.51,40.62,22.66,61.33,33.26,6.74,3.35,12.8,8.55,20.3,10.15,26.26-15.1,53.6-28.25,79.71-43.62,3.45,2.49,.23,4.97-1.36,7.31,1.89,.66,3.9,.58,5.9,.58l.08,2.71c-2.51,1.87-5.63,2.92-7.79,5.2l-.23,2.34c-27.78,12.9-53.77,29.26-80.84,43.51-14.09,8.49-28.45,16.52-42.65,24.8-33.2-19.13-67.96-35.32-100.96-54.75-18.2-9.02-35.65-19.44-53.75-28.62-23.73-14.22-48.92-25.74-72.63-39.96-33.18-17.5-65.97-35.77-99.11-53.38-17.16-9.62-35.09-17.71-52.25-27.32l-1.15-.64c16.81-8.42,32.26-19.19,49.31-27.12Z"/><path class="au" d="M78.89,303.33c17.16,9.62,35.09,17.71,52.25,27.32,33.14,17.61,65.93,35.87,99.11,53.38,23.71,14.22,48.9,25.74,72.63,39.96,18.1,9.18,35.54,19.6,53.75,28.62,33,19.44,67.76,35.63,100.96,54.75,14.2-8.28,28.56-16.31,42.65-24.8,27.08-14.26,53.07-30.61,80.84-43.51,.14,17.07,.16,34.17,.12,51.26-12.7,4.79-23.87,12.61-35.73,19.07-25.74,14.03-51.53,28-77.41,41.81-.12,4.09,.97,8.01,2.65,11.73,24.37-12.88,48.38-26.52,72.71-39.57,12.24-7.25,24.76-14.01,37.78-19.74,.02,5.81-.02,11.65-.04,17.46-35.67,16.62-68.89,37.95-104.08,55.49-5.86,3.14-11.3,7.11-17.59,9.41-5.4,.02-10.01-3.45-14.65-5.77-14.34-8.57-29.71-15.14-44.13-23.54-44.93-23.13-88.84-48.18-133.3-72.22-36.1-18.37-71.46-38.13-107.2-57.18-22.62-13.72-46.72-24.84-69.38-38.44-4.75-4.19-12.86-3.62-16.17-9.2-2.71-14.32-3.14-29.11-1.97-43.62,1.97-10.89,3.68-21.86,6.2-32.67Z"/><path class="aq" d="M695.29,371.29c35.48-21,72.11-39.98,107.41-61.33,59.15,33.82,119.24,66.13,177.78,100.96-10.44,7.46-21.84,13.29-33.04,19.48-34.68,20.34-70,39.53-104.86,59.54-27.74,15.53-55.12,31.7-83.04,46.9-36.45-22.27-74.48-41.85-111.29-63.48-22.19-12.41-44.3-25.07-66.94-36.65,2.16-2.28,5.28-3.33,7.79-5.2,35.05-20.69,70.7-40.31,106.2-60.22Z"/><path class="u" d="M90.83,388.82c22.66,13.6,46.76,24.72,69.38,38.44,35.75,19.05,71.11,38.81,107.2,57.18,44.46,24.04,88.36,49.08,133.3,72.22,14.42,8.4,29.79,14.98,44.13,23.54,4.64,2.32,9.25,5.79,14.65,5.77,6.29-2.3,11.73-6.27,17.59-9.41,35.19-17.55,68.42-38.87,104.08-55.49-.02,3.72,0,7.46,.04,11.2-36.53,17.71-71.41,38.6-107.49,57.16-8.22,4.05-15.47,9.98-24.14,13.05-10.79-3.41-19.83-10.85-30.2-15.35-23.4-10.99-45.28-24.84-68.39-36.39-38.62-20.13-76.57-41.54-115.13-61.76-52.7-29.91-106.28-58.29-160.09-86.1,4.89-4.85,10.81-8.59,15.08-14.05Z"/><path class="m" d="M75.75,402.87c53.81,27.82,107.39,56.19,160.09,86.1,38.56,20.22,76.51,41.62,115.13,61.76,23.11,11.55,44.99,25.39,68.39,36.39,10.38,4.5,19.42,11.94,30.2,15.35,8.67-3.06,15.92-9,24.14-13.05,36.08-18.55,70.96-39.45,107.49-57.16,.02,16.95,.06,33.9,.06,50.83-30.9,16.6-61.55,33.61-92.66,49.84-9.39,5.26-18.96,10.23-27.82,16.39,.62,4.03,1.54,8.03,2.96,11.9,17.42-12.14,37.91-18.8,55.55-30.53,10.23-6.47,21.57-10.91,31.82-17.34,9.57-5.98,19.68-11.01,30.14-15.27-.04,4.83-.1,9.68-.23,14.53-41.6,21.86-82.39,45.24-123.76,67.53-2.98,1.34-6.18,4.52-9.49,2.08-19.85-10.52-39.47-21.49-59.44-31.8-23.22-12.68-46.72-24.78-69.96-37.39-38.42-19.81-75.87-41.42-114.25-61.33-28.29-15.59-56.83-30.8-85.28-46.08-3.51-2.08-7.13-3.99-10.97-5.3-10.56-5.86-21.18-11.81-31.43-18.24-5.51-3.12-3.82-10.25-5.01-15.43-3.16-21.39,.6-42.75,4.31-63.77Z"/><path class="b" d="M947.44,430.4c11.2-6.18,22.6-12.02,33.04-19.48l1.29-.82c-.29,148.21-.64,296.51,.04,444.78-.6,5.73,1.15,12.18-.86,17.52-73.04,41.13-146.22,82-219.85,122.08-3.6-20.98-.84-42.41-.92-63.55-.25-53.4,.02-106.79-.08-160.19-.6-29.46,.82-58.94-.86-88.36-.55-28.76,.84-57.51-.12-86.25-.02-19.76-.49-39.55,.43-59.29,27.92-15.2,55.31-31.37,83.04-46.9,34.87-20.01,70.18-39.2,104.86-59.54Z"/><path class="af" d="M761.09,994.48c-3.59-20.97-.83-42.4-.93-63.55-.24-53.39,.02-106.79-.08-160.18-.59-29.46,.82-58.94-.86-88.37-.56-28.76,.83-57.5-.13-86.24-.02-19.77-.49-39.56,.43-59.3-36.45-22.27-74.48-41.85-111.29-63.49-22.19-12.41-44.3-25.06-66.94-36.64l-.23,2.34c.15,17.07,.17,34.17,.13,51.25-.05,4.42,0,8.85,0,13.3,.02,5.81-.02,11.65-.05,17.47-.01,3.71,0,7.46,.05,11.19,.02,16.95,.06,33.9,.06,50.83v15c-.03,4.82-.1,9.68-.22,14.52-.81,16.11,.86,32.28-.79,48.34,.79,2.26,1.31,4.58,1.59,6.99-.46,35.58,.02,71.21-.15,106.8,.43,40.64-.74,81.32,.31,121.96,6.56,3.19,13.19,6.26,19.44,10.04,11.81,7.54,24.39,13.75,36.59,20.63,38.59,21.68,77.19,43.35,115.85,64.86,2.34,1.1,4.52,3.13,7.31,2.82l-.1-.58Zm-124.96-118.89c.25,5.71-6.44,10.06-11.56,7.39-8.41-3.96-12.66-13.33-14.86-21.88-1.42-5.2,.4-13.25,6.89-13.58,12.6,1.5,20.53,16.15,19.53,28.07Zm38.51-25.68c-8.82,.42-14.85-7.81-18.14-15.02-2.57-5.63-4.32-13.89,1.03-18.43,8.81-4.3,17.97,4.72,21.43,12.38,3.37,6.59,4.74,18.55-4.32,21.06Zm48.19,78.99c-3.1,6.5-12.46,4.32-16.16-.51-7.58-7.16-14.54-21.1-5.96-29.85,6.29-3.91,13.24,1.85,16.93,6.8,4.57,6.61,8.76,15.64,5.2,23.57Z"/><path class="aw" d="M607.41,485.69c2.34,1.21,4.7,2.47,7.01,3.86,16.99,10.42,35.05,18.96,52.1,29.32,15.41,8.42,30.22,17.89,45.8,26.03,7.11,3.8,14.22,7.62,20.87,12.18,.14,6.16,.21,12.37-.02,18.55-9.25-3.27-17.4-8.81-25.99-13.37-27.3-16.03-55.06-31.21-82.71-46.58-5.79-3.25-11.57-6.49-17.34-9.74-.08-6.37-.1-12.74,.23-19.09l.06-1.17Z"/><path class="af" d="M598.37,499.02c-.68-5.73,5.53-8.67,8.98-12.16-.33,6.35-.31,12.72-.23,19.09,5.77,3.25,11.55,6.49,17.34,9.74-.55,4.83-.88,9.94-4.17,13.83-8.42-4.5-16.58-9.43-24.84-14.22,4.46-4.31,2.73-10.75,2.92-16.27Z"/><path class="at" d="M545.47,509.38c11.85-6.45,23.03-14.28,35.73-19.07-.04,4.42,0,8.85,0,13.29-13.03,5.73-25.54,12.49-37.78,19.74-24.33,13.05-48.34,26.69-72.71,39.57-1.68-3.72-2.77-7.64-2.65-11.73,25.89-13.81,51.67-27.78,77.41-41.81Z"/><path class="n" d="M592.7,513.86l2.75,1.44c8.26,4.79,16.42,9.72,24.84,14.22,34.41,19.81,69.07,39.16,103.57,58.82,7.29,3.97,14.28,8.51,21.9,11.88,.08,1.64,.25,4.89,.33,6.53-3.76-1.85-7.42-3.88-10.99-6.02-5.65-3.39-11.46-6.43-17.22-9.64-32.13-18.45-64.33-36.78-96.81-54.61-9.37-5.53-18.96-10.68-28.31-16.21-.02-1.6-.04-4.81-.06-6.41Z"/><path class="j" d="M606.9,545.06c1.44,.58,4.29,1.75,5.71,2.32,32.75,19.56,66.5,37.37,99.38,56.72,6.92,3.99,14.11,7.52,20.71,12.08-.08,6.45-.04,12.92-.21,19.37-4.6-2.38-9.08-4.91-13.5-7.56-36.65-19.78-72.13-41.67-109.03-60.96-.78-.39-2.32-1.13-3.1-1.5-.21-6.84-.25-13.66,.04-20.48Z"/><path class="c" d="M592.89,573.48c4.62,1.79,8.9,4.34,13.09,7.03,33.67,19.93,68.02,38.69,101.94,58.22,11.67,6.23,23.03,13.03,34.6,19.46,2.32,1.29,3.45,3.41,3.39,6.33-3.47,.76-5.94-2.2-8.75-3.51-28.41-16.07-56.89-31.99-85.34-47.99-13.72-7.89-27.49-15.7-41.28-23.46-6-3.25-11.77-6.84-17.71-10.17,.02-1.46,.04-4.42,.06-5.9Z"/><path class="av" d="M488.6,632.93c31.11-16.23,61.76-33.24,92.66-49.84v15c-10.46,4.25-20.57,9.29-30.14,15.27-10.25,6.43-21.59,10.87-31.82,17.34-17.65,11.73-38.13,18.39-55.55,30.53-1.42-3.86-2.34-7.87-2.96-11.9,8.85-6.16,18.43-11.14,27.82-16.39Z"/><path class="x" d="M606.37,604.5l1.31,.53c8.96,4.44,17.55,9.59,26.34,14.34,32.61,18.33,65.44,36.32,97.69,55.27l1.77,1.17c-.06,6.33,0,12.68-.21,19-2.79-.43-5.28-1.66-7.56-3.21-39.49-22.99-79.32-45.4-119.33-67.45,.08-6.55-.16-13.13-.02-19.66Z"/><path class="af" d="M606.39,624.16c40,22.04,79.84,44.46,119.33,67.45-13.7,3.92-26.4-5.05-37.8-11.46-11.61-8.57-23.94-16.25-37.25-21.94-15.78-6.39-30.3-15.82-42.45-27.78-1.97-1.62-2.59-3.72-1.83-6.27Z"/><path class="aj" d="M116.72,629.3c7.48,4.68,11.92,12.61,18.2,18.65,11.24,11.59,21.68,23.91,32.73,35.69,.55,.58,1.68,1.77,2.24,2.34-1.62,3.16-3.25,6.33-4.87,9.51-.55-.6-1.66-1.79-2.22-2.38-16.15-17.26-31.5-35.26-47.85-52.35,.12-3.88,.76-7.72,1.77-11.46Z"/><path class="y" d="M580.25,660.96c-44.13,24.98-89.02,48.55-133.6,72.7l-1.56,.86,.4-1.75c-11.14-5.23-21.78-11.53-33.29-15.98-3.21-2.1-6.48-4.09-9.85-5.89-23.68-12.19-46.73-25.5-70.27-37.99-15.91-9.1-32.34-17.17-48.25-26.25-15.52-7.17-29.88-16.54-45.21-24.08-15.15-8.3-30.84-15.58-45.66-24.47-10.61-4.77-20.54-10.87-30.85-16.22-6.76-3.43-13.17-7.52-19.73-11.33-23.54-12.33-47.03-24.8-69.93-38.28-3.14-2.32-6.15-4.81-9.18-7.23,14.94-8.12,30.23-15.66,44.62-24.72,3.85,1.31,7.46,3.23,10.98,5.3,28.45,15.28,56.99,30.49,85.28,46.08,38.38,19.91,75.83,41.52,114.25,61.33,23.23,12.61,46.73,24.72,69.95,37.4,19.97,10.3,39.59,21.28,59.43,31.8,3.31,2.44,6.51-.74,9.49-2.08,41.37-22.29,82.17-45.67,123.77-67.53-.81,16.11,.86,32.28-.79,48.34Z"/><path class="z" d="M220.1,669.26l2.69,.41c9.22,4.83,18.45,9.64,27.39,15.02-11.34,9.35-24.59,19.07-28.09,34.19-.45,.66-1.4,1.97-1.85,2.63,.27-17.4,1.25-34.87-.14-52.25Z"/><path class="l" d="M115.15,674.91c11.32,8.75,19.56,20.77,30.06,30.45,9.14,10.72,19.6,20.22,29.05,30.67l1.23,1.31c-1.13,2.4-2.24,4.83-3.37,7.27-4.44-5.26-9.39-10.07-13.72-15.39-4.66-5.57-9.7-10.77-14.65-16.05-9.29-10.54-18.78-20.85-28.82-30.63,.06-1.91,.16-5.73,.23-7.64Z"/><path class="ap" d="M195.22,680.29c10.09,5.81,16.83,15.98,20.85,26.67,1.27,9.29,.02,18.7,.14,28.04-6.43-7.75-13.25-15.12-19.85-22.68l-.6-.64c4.77-10.01,.47-21.04-.55-31.39Z"/><path class="ad" d="M250.18,684.69c12.35,5.55,24.02,12.45,35.93,18.88-4.97,18.16,.78,39.18,14.79,51.79,6.76-12.39,17.34-24,32.01-26.11,1.23,.72,3.66,2.18,4.87,2.9-5.46,5.3-6.8,13.07-8.12,20.24-1.87,15.47,1.58,31.37,8.69,45.18,1.85,3.72,4.42,7.23,8.3,9.04,5.63-4.97,8.59-12.1,8.2-19.6,4.81,.76,5.03,6.35,6.74,9.98,6.23,19,10.42,40.56,3.12,59.83-5.77,11.67-15.82,20.94-28.52,24.45-6.06,3.02-11.96-1.36-17.07-4.19l-1.5-.86c5.01-3.41,10.31-7.31,12.1-13.44,4.07-11.79-1.85-23.63-4.38-35.07,.76-17.81-7.77-34.29-18.98-47.56-1.71-1.68-3.64-3.08-5.75-4.19-.27,7.07,.66,14.16,0,21.22-.43,5.28-5.71,11.11-11.34,8.98-5.28-4.95-7.15-12.37-11.4-18.08-10.27-14.48-18.18-30.78-20.67-48.49-6.78,7.21-8.65,17.55-12.98,26.24-4.87-5.88-10.5-11.03-15.92-16.35-4.21-4.17-8.12-8.65-11.44-13.56,1.29-4.03,1.56-8.24,2.01-12.39,.35-.51,1.03-1.5,1.38-2.01,.45-.66,1.4-1.97,1.85-2.63,3.49-15.12,16.74-24.84,28.09-34.19Z"/><path class="p" d="M165.02,695.49c1.62-3.18,3.25-6.35,4.87-9.51,8.55,8.65,17.05,17.34,25.89,25.7l.6,.64c-3.12,2.24-6.18,4.54-9.22,6.88l-.66-.7c-7.07-7.75-14.32-15.33-21.47-23.01Z"/><path class="an" d="M300.9,755.36c-14.01-12.61-19.76-33.63-14.79-51.79,15.33,9.06,31.39,16.76,46.8,25.68-14.67,2.12-25.25,13.72-32.01,26.11Z"/><path class="i" d="M187.14,719.2c3.04-2.34,6.1-4.64,9.22-6.88,6.59,7.56,13.42,14.94,19.85,22.68,.16,.23,.47,.68,.64,.9,3.33,4.91,7.23,9.39,11.44,13.56-1.73,2.57-3.43,5.16-5.12,7.75-3.45-3.43-6.86-6.88-10.07-10.5-9.04-8.81-17.61-18.04-25.97-27.51Z"/><path class="am" d="M174.26,736.03c4.13-5.81,8.26-11.61,12.22-17.52l.66,.7c8.36,9.47,16.93,18.7,25.97,27.51-1.38,4.56-2.3,9.27-2.26,14.07-.92-2.14-1.87-4.25-2.84-6.33-4.4,1.42-6.59,5.69-9.25,9.12-7.89-8.63-15.39-17.61-23.28-26.24l-1.23-1.31Z"/><path class="h" d="M337.78,732.15c1.42,.8,2.88,1.58,4.34,2.36,13.52,6.78,28.37,14.07,34.33,29.07,1.64,3.51,3.18,7.13,4.44,10.83,1.03,30.28,.21,60.61,.41,90.91-5.49-2.94-11.03-5.75-16.58-8.51,7.29-19.27,3.1-40.82-3.12-59.83-1.71-3.64-1.93-9.22-6.74-9.98,.39,7.5-2.57,14.63-8.2,19.6-3.88-1.81-6.45-5.32-8.3-9.04-7.11-13.81-10.56-29.71-8.69-45.18,1.31-7.17,2.65-14.94,8.12-20.24Z"/><path class="r" d="M601.44,906.76c-17.36,8.84-33.85,19.32-51.2,28.17-34.75,18.11-69.28,36.63-103.8,55.16-1.19-1.88-2.38-3.74-3.58-5.59,2.9-13.31,.9-26.99,3-40.37-1.44-9.13-1.1-18.35-.54-27.51,.87-48.02,.72-96.03,.43-144.04-.17-3.68-.66-7.31-1.03-10.93,.21-9.04-1.05-18.14,.34-27.14l1.56-.86c44.58-24.15,89.48-47.71,133.6-72.7,.79,2.26,1.31,4.58,1.59,6.99-.46,35.58,.02,71.21-.15,106.8,.43,40.64-.74,81.32,.31,121.96,6.56,3.19,13.19,6.26,19.44,10.04Z"/><path class="d" d="M175.49,737.34c7.89,8.63,15.39,17.61,23.28,26.24l-.51,.68c-1.15,1.46-2.3,2.92-3.47,4.38-7.36-7.48-14.59-15.12-21.68-22.87l-.99-1.15c1.13-2.44,2.24-4.87,3.37-7.27Z"/><path class="ak" d="M244.22,765.82c4.34-8.69,6.2-19.02,12.98-26.24,2.49,17.71,10.4,34,20.67,48.49,4.25,5.71,6.12,13.13,11.4,18.08,5.63,2.14,10.91-3.7,11.34-8.98,.66-7.07-.27-14.16,0-21.22,2.12,1.11,4.05,2.51,5.75,4.19,11.22,13.27,19.74,29.75,18.98,47.56-3,6.88-6.12,13.83-10.91,19.68-4.01,4.52-4.83,10.66-6.78,16.17,1.97-11.51,.08-23.22-4.48-33.86-7.19,4.31-15.29,11.98-24.1,6.76-11.63-4.52-7.05-18.61-7.62-28.11,3.29,1.77,8.61,7.64,11.2,2.14-1.95-3.14-4.29-6-6.62-8.85-10.11-11.2-20.07-22.52-30.12-33.8-.41-.51-1.27-1.5-1.71-2.01Z"/><path class="af" d="M614.5,744.78c7.58-3.12,15.06,2.88,21.98,5.51,6.16,6.27,10.15,17.09,4.93,25.21-6.23,9.84-22.41,10.89-28.33,.12-1.6-6.27-3.23-12.55-4.4-18.9,1.13-4.15,2.28-9.25,5.81-11.94Zm2.03,3.97c-7.91,7.01-1.77,18.94,4.62,24.8,3.76,4.44,12.57,3.88,13.25-2.84,1.44-9.74-6.47-24.43-17.87-21.96Z"/><path class="ax" d="M173.11,745.77c7.09,7.75,14.32,15.39,21.68,22.87-1.34,8.07-3.18,16.7-.1,24.61,2.14,5.65,4.21,11.38,4.87,17.44-19.93-10.99-28.95-35.42-28.45-57.18,.58-2.61,1.29-5.2,2.01-7.75Z"/><path class="ao" d="M210.85,760.79c-.04-4.81,.88-9.51,2.26-14.07,3.21,3.62,6.62,7.07,10.07,10.5,5.51,5.26,10.13,11.36,15.12,17.13-3.45,1.95-7.44,5.63-11.61,3.53-4.56-3.8-8.81-7.93-13.66-11.34-.7-1.93-1.42-3.86-2.18-5.75Z"/><path class="w" d="M616.54,748.75c11.4-2.47,19.31,12.22,17.87,21.96-.68,6.72-9.49,7.27-13.25,2.84-6.39-5.86-12.53-17.79-4.62-24.8Z"/><path class="f" d="M228.3,749.47c5.42,5.32,11.05,10.48,15.92,16.35,.43,.51,1.29,1.5,1.71,2.01-1.54,2.75-3.08,5.55-4.58,8.36-.76-.47-2.28-1.4-3.04-1.85-4.99-5.77-9.62-11.88-15.12-17.13,1.68-2.59,3.39-5.18,5.12-7.75Z"/><path class="g" d="M198.77,763.58c2.65-3.43,4.85-7.7,9.25-9.12,.97,2.08,1.91,4.19,2.84,6.33,.76,1.89,1.48,3.82,2.18,5.75,1.25,4.36,1.52,8.96,.12,13.33-5.57-4.62-9.96-10.4-14.9-15.61l.51-.68Z"/><path class="af" d="M705.07,762.59c-.53-3.78,3.53-7.42,7.19-5.59,8.34,3.74,12.64,14.18,8.94,22.72-9.96,3.43-17.05-8.49-16.13-17.13Z"/><path class="ag" d="M194.79,768.63c1.17-1.46,2.32-2.92,3.47-4.38,4.93,5.22,9.33,10.99,14.9,15.61,9.33,8.07,17.77,17.09,26.75,25.58,6-2.77,10.31-7.95,13.09-13.85,3.66,4.68,6.84,10.23,12.18,13.21,4.07,2.22,7.77-.82,10.87-3.18,2.32,2.86,4.66,5.71,6.62,8.85-2.59,5.51-7.91-.37-11.2-2.14,.58,9.49-4.01,23.59,7.62,28.11,8.81,5.22,16.91-2.44,24.1-6.76,4.56,10.64,6.45,22.35,4.48,33.86-.7,2.03-1.42,4.07-2.18,6.1-13.09-7.83-27.02-14.03-40.37-21.31,.18-2.38,.37-4.85-1.19-6.8-6.55-11.03-13.46-22.09-22.74-31.04-2.53-2.53-6.08-3.39-9.25-4.68,.33,1.71,.68,3.43,1.03,5.16-3.66,4.64-5.69,10.19-6.51,16.03-4.54-2.51-8.88-5.3-13.4-7.77-.53-9.29-2.77-19.09,1.77-27.76-6.1-8.09-12.49-16.03-20.03-22.85Z"/><path class="al" d="M213.03,766.54c4.85,3.41,9.1,7.54,13.66,11.34,4.17,2.1,8.16-1.58,11.61-3.53,.76,.45,2.28,1.38,3.04,1.85,4.89,4.29,7.97,10.13,11.65,15.41-2.77,5.9-7.09,11.07-13.09,13.85-8.98-8.49-17.42-17.5-26.75-25.58,1.4-4.38,1.13-8.98-.12-13.33Z"/><path class="ac" d="M194.79,768.63c7.54,6.82,13.93,14.75,20.03,22.85-4.54,8.67-2.3,18.47-1.77,27.76-4.81-2.38-9.31-5.24-13.5-8.55-.66-6.06-2.73-11.79-4.87-17.44-3.08-7.91-1.23-16.54,.1-24.61Z"/><path class="k" d="M241.34,776.2c1.5-2.81,3.04-5.61,4.58-8.36,10.05,11.28,20.01,22.6,30.12,33.8-3.1,2.36-6.8,5.4-10.87,3.18-5.34-2.98-8.53-8.53-12.18-13.21-3.68-5.28-6.76-11.11-11.65-15.41Z"/><path class="af" d="M661.76,773.54c11.3-2.08,18.86,12.16,18.29,21.94-.62,6.18-8.3,7.25-12.55,4.13-5.24-3.97-9.57-9.86-9.88-16.6-.45-3.53,.41-8.09,4.15-9.47Z"/><path class="af" d="M706.91,794.01c5.88,.08,12.14,.84,17.26,3.94,7.91,8.53,10.27,24.22,.55,32.36-5.44,2.36-13.05,6.92-18.14,1.62-8.12-6.23-9.94-17.44-9.27-27.02,2.16-4.27,4.97-9.04,9.59-10.91Zm-1.93,8.57c-4.83,5.26-1.62,13.62,2.03,18.72,3.33,4.93,10.83,11.14,16.19,5.22,3.31-8.44-.97-18.37-7.79-23.77-2.88-2.47-7.72-3.33-10.44-.16Z"/><path class="aa" d="M704.98,802.58c2.71-3.16,7.56-2.3,10.44,.16,6.82,5.4,11.09,15.33,7.79,23.77-5.36,5.92-12.86-.29-16.19-5.22-3.66-5.1-6.86-13.46-2.03-18.72Z"/><path class="t" d="M446.44,990.09c-1.19-1.88-2.38-3.74-3.58-5.59,2.9-13.31,.9-26.99,3-40.37-1.44-9.13-1.1-18.35-.54-27.51,.87-48.02,.72-96.03,.43-144.04-.17-3.68-.66-7.31-1.03-10.93,.21-9.04-1.05-18.14,.34-27.14l.4-1.75c-11.14-5.23-21.78-11.53-33.29-15.98-3.21-2.1-6.48-4.09-9.85-5.89-23.68-12.19-46.73-25.5-70.27-37.99-15.91-9.1-32.34-17.17-48.25-26.25-15.52-7.17-29.88-16.54-45.21-24.08-15.15-8.3-30.84-15.58-45.66-24.47-10.61-4.77-20.54-10.87-30.85-16.22-6.76-3.43-13.17-7.52-19.73-11.33-23.54-12.33-47.03-24.8-69.93-38.28-3.14-2.32-6.15-4.81-9.18-7.23-.51,.78-1.56,2.34-2.08,3.12-.59,35.99-.24,72.01-.18,108.03-.39,49.58,.49,99.17-.59,148.73,5.84,2.96,11.48,6.27,17.21,9.44,7.64,4.25,15.15,8.7,22.99,12.57,29.07,14.38,56.86,31.23,85.98,45.58l-.02,.14c23.34,13.23,47.38,25.15,70.96,37.9,16.07,9.17,32.34,18,48.84,26.39,26.25,14.71,53.08,28.35,79.48,42.77,17.28,9.74,35.11,18.44,52.66,27.66,2.75,1.3,5.22,3.7,8.46,3.62l-.54-.87Zm-71.76-82.83c-3.72,2.56-8.44,2.11-12.7,2.6-3.61-2.18-9.26-3.35-10.09-8.16l-1.11,.37c-4.53,1.11-8.44-1.93-12.25-3.86-8.62-5.09-17.16-10.35-26.07-14.93-4.58-2.49-9.05-5.2-13.58-7.71-15.25-7.54-30.2-15.65-44.94-24.1-19.9-11.4-40.94-20.58-60.98-31.73-8.93-4.96-17.55-10.54-26.91-14.71l-.23-1.07c-7.49-3.79-14.72-8.18-22.43-11.56l-.88-.48c-12.12-6.59-20.81-18.17-25.16-31.13-3.15-10.78-1.62-22.08-1.77-33.12,.21-15.06-.66-30.1-.66-45.12,.07-1.91,.17-5.72,.23-7.64,.08-10.7,.13-21.36-.26-32.04l.06-2.1c.13-3.88,.77-7.72,1.77-11.46,2.42-6.32,9.73-10.13,16.29-8.3,8.3,2.34,15.74,6.88,23.3,10.95,2.06,1.14,4.12,2.35,6.16,3.59,13.3,8.16,26.9,15.82,40.57,23.33,.87,.43,2.62,1.31,3.5,1.75,5.57,2.71,10.87,5.97,16.25,9.06,9.22,4.82,18.45,9.63,27.38,15.02,12.35,5.54,24.02,12.44,35.94,18.87,15.33,9.07,31.39,16.77,46.8,25.69,1.23,.72,3.66,2.17,4.88,2.89,1.42,.8,2.87,1.59,4.33,2.36,13.51,6.79,28.37,14.07,34.33,29.07,1.64,3.52,3.19,7.13,4.44,10.83,1.03,30.28,.21,60.61,.41,90.92,.02,10.45-.23,20.92,.13,31.39-1.61,3.82-2.9,8.32-6.74,10.54Z"/><path class="ab" d="M231.93,805.82c3.16,1.29,6.72,2.16,9.25,4.68,9.29,8.96,16.19,20.01,22.74,31.04,1.56,1.95,1.38,4.42,1.19,6.8-1.01-.64-3.04-1.87-4.05-2.51l-.97-.62c-6.78-13.03-16.85-23.91-27.14-34.25-.35-1.73-.7-3.45-1.03-5.16Z"/><path class="ah" d="M226.45,827c.82-5.83,2.86-11.38,6.51-16.03,10.29,10.33,20.36,21.22,27.14,34.25-10.97-6.49-22.56-11.92-33.65-18.22Z"/><path class="e" d="M657.52,816.46c8.81-4.29,17.98,4.73,21.43,12.39,3.37,6.59,4.75,18.55-4.31,21.06-8.81,.43-14.85-7.81-18.14-15.02-2.57-5.63-4.31-13.89,1.03-18.43Z"/><path class="q" d="M329.73,862.77c-1.79,6.12-7.09,10.02-12.11,13.43-4-2.28-8.13-4.32-12.14-6.56,.77-2.03,1.48-4.07,2.18-6.1,1.95-5.51,2.78-11.65,6.79-16.16,4.79-5.86,7.9-12.81,10.91-19.68,2.52,11.43,8.44,23.27,4.38,35.07Z"/><path class="ae" d="M616.6,847.53c12.59,1.5,20.52,16.15,19.54,28.06,.25,5.71-6.45,10.07-11.57,7.4-8.4-3.97-12.66-13.33-14.85-21.88-1.42-5.2,.39-13.25,6.88-13.58Z"/><g><path class="v" d="M220.1,669.26c1.39,17.39,.4,34.84,.14,52.25-.34,.51-1.03,1.5-1.37,2.01-.46,4.15-.72,8.36-2.02,12.39-.16-.23-.47-.69-.63-.91-.13-9.34,1.12-18.76-.15-28.04-4.03-10.68-10.76-20.85-20.86-26.66,1.03,10.35,5.32,21.38,.56,31.39-8.83-8.36-17.34-17.05-25.88-25.7-.56-.57-1.69-1.77-2.24-2.34-11.06-11.78-21.5-24.1-32.73-35.69-6.29-6.04-10.73-13.97-18.21-18.65,2.42-6.31,9.74-10.13,16.29-8.3,8.3,2.34,15.74,6.89,23.3,10.95,2.06,1.15,4.12,2.36,6.17,3.6,13.28,8.16,26.89,15.81,40.57,23.31,.86,.43,2.6,1.31,3.48,1.75,5.57,2.71,10.87,5.97,16.25,9.06l-2.68-.41Z"/><path class="v" d="M381.42,896.71c-1.6,3.83-2.9,8.32-6.74,10.54-3.72,2.57-8.44,2.11-12.7,2.6-3.61-2.18-9.26-3.35-10.09-8.16l-1.11,.37c-4.53,1.12-8.44-1.93-12.25-3.86-8.62-5.09-17.16-10.35-26.07-14.93-4.58-2.49-9.04-5.2-13.58-7.71-15.25-7.54-30.2-15.65-44.93-24.09-19.91-11.41-40.95-20.6-60.99-31.74-8.93-4.96-17.55-10.54-26.91-14.71l-.23-1.07c-7.49-3.79-14.72-8.17-22.43-11.56l-.88-.48c-12.12-6.59-20.81-18.17-25.16-31.12-3.14-10.79-1.62-22.09-1.77-33.13,.21-15.06-.65-30.1-.65-45.11,10.04,9.78,19.53,20.09,28.82,30.63,4.95,5.29,9.98,10.49,14.64,16.05,4.34,5.32,9.29,10.13,13.73,15.39l.98,1.15c-.72,2.55-1.44,5.14-2.01,7.74-.49,21.76,8.52,46.18,28.45,57.17,4.19,3.31,8.69,6.17,13.5,8.56,4.51,2.46,8.85,5.25,13.39,7.76,11.09,6.32,22.69,11.73,33.65,18.23l.97,.62c1.01,.64,3.04,1.86,4.04,2.5,13.35,7.28,27.29,13.48,40.37,21.3,4.01,2.24,8.14,4.27,12.14,6.56l1.51,.87c5.11,2.83,11.01,7.21,17.07,4.18,12.7-3.51,22.74-12.77,28.52-24.45,5.54,2.75,11.09,5.57,16.57,8.51,.02,10.45-.23,20.92,.13,31.39Z"/><path class="v" d="M186.49,718.5c-3.96,5.92-8.1,11.71-12.22,17.52-9.45-10.45-19.91-19.94-29.05-30.67-10.5-9.68-18.75-21.69-30.07-30.44,.09-10.7,.13-21.37-.26-32.05l.06-2.1c16.36,17.1,31.71,35.09,47.85,52.35,.56,.59,1.67,1.79,2.23,2.39,7.14,7.68,14.39,15.26,21.46,23.01Z"/></g><path class="af" d="M657.54,874.24c3.51-2.9,8.49-1.21,11.59,1.48,7.05,6.02,12.14,15,12.2,24.41,.39,4.46-3.43,8.49-7.79,8.79-7.5-.64-12.57-7.11-16.21-13.03-3.62-6.39-6.2-16.13,.21-21.65Z"/><path class="o" d="M700.71,898.54c6.29-3.9,13.23,1.85,16.93,6.8,4.56,6.62,8.75,15.63,5.2,23.57-3.1,6.49-12.47,4.31-16.17-.51-7.58-7.17-14.55-21.1-5.96-29.85Z"/></svg>