<?xml version="1.0" encoding="UTF-8"?><svg id="a" xmlns="http://www.w3.org/2000/svg" viewBox="0 0 1024 1024"><defs><style>.b{fill:#122556;}.c{fill:#63dce7;}.d{fill:#f7c59a;}.e{fill:#15295a;}.f{fill:#fcb7a1;}.g{fill:#fccd57;}.h{fill:#f2e5d3;}.i{fill:#f2cdb7;}.j{fill:#151c4b;}.k{fill:#8dfaf9;}.l{fill:#fbecb9;}.m{fill:#cbcad1;}.n{fill:#e2dbcc;}.o{fill:#5ed7e6;}.p{fill:#162858;}.q{fill:#c6c2ca;}.r{fill:#fcb440;}.s{fill:#102755;}.t{fill:#e1dacb;}.u{fill:#263b78;}.v{fill:#f7f7ed;}.w{fill:#947287;}.x{fill:#89f8f5;}.y{fill:#8dfbf8;}.z{fill:#2a5196;}.aa{fill:#f0dfcf;}.ab{fill:#8efcf7;}.ac{fill:#f9f3dc;}.ad{fill:#fdb139;}.ae{fill:#f46b3d;}.af{fill:#162859;}.ag{fill:#284a8e;}.ah{fill:#fbe5a6;}.ai{fill:#fce198;}.aj{fill:#f8f5eb;}.ak{fill:#bcc1d2;}.al{fill:#f9bf46;}.am{fill:#f5b043;}.an{fill:#f16839;}.ao{fill:#f3e5d5;}.ap{fill:#f34d37;}.aq{fill:#f1603d;}.ar{fill:#395ea3;}.as{fill:#f8f6ec;}.at{fill:#f5f2ea;}.au{fill:#f5f4eb;}.av{fill:#e1dbcc;}.aw{fill:#f6f5ea;}.ax{fill:#8cf9f7;}.ay{fill:#ef613c;}</style></defs><g><path class="j" d="M470.99,842.51c4.28-.3,8.59-.37,12.9-.29-.25,9.39,.25,18.8-.42,28.16-1.15-.69-2.26-1.47-3.37-2.19-2.8,6.23-1.15,13.16-.97,19.72,.48,6.24-1.36,12.56,.06,18.73,2.26,2.9,4.05,6.01,4.37,9.78-4.14,.14-8.23,.82-12.36,.98-.33-.39-1.01-1.17-1.34-1.56,.1-24.45-.22-48.92,1.12-73.33Z"/><path class="j" d="M162.32,872.22c4.09-5.88,10.68-11.12,18.14-11.19,12.92-.63,23.34,11.88,23.96,24.02,4.15,14.97-7.68,33.22-23.96,32.76-7.81,.16-13.02-6.03-17.63-11.39,.72,10.37,.58,20.75,.85,31.14-4.77-.09-9.54-.06-14.32-.03,.1-25.22,.3-50.43,.09-75.65,4.37-.29,8.75-.33,13.12-.01,.13,3.43,.07,6.91-.25,10.35Zm5.87,3.59c-6.27,6.82-6.06,17.88-1.27,25.51,4.63,6.33,14.97,6.57,20.04,.65,6.36-7.21,5.49-18.73-.56-25.85-1.99-.79-3.98-1.61-5.64-2.98-4.34-.46-9.36-.94-12.57,2.68Z"/><path class="j" d="M215.3,873.81c6.01-12.1,21.99-15.61,33.91-11,7.08,3.23,11.95,10.28,12.3,18.09,.37,11.66-.63,23.37,.42,35.02-3.98,2.52-9.08,.68-13.54,1.36,.1-2.55,.42-5.13-.12-7.63-3.4,.56-4.82,4.21-7.84,5.52-8.48,5.19-20.89,2.62-25.89-6.2-4.24-5.61-1.44-12.93,1.73-18.3,8.41-7.53,20.96-7.6,31.3-4.67,.17-3.29,.3-6.6-.45-9.8-2.48-3.53-7.19-5.36-11.36-4.01-3.65,1.02-8.25,1.38-10.32,5-3.29,2.12-9.79,1.17-10.14-3.39Zm36.16,4.2c.5,2.73,1.66,5.52,.59,8.28-1.83,5.41,1.54,10.68,1.02,16.16,1.87-7.86,3.98-17.65-1.61-24.44Zm-25.62,26.17c3.65,3.79,8.97,4.02,13.84,3.03,6.47-1.99,9.92-8.77,7.89-15.23-4.64-.07-9.29-.17-13.93,.12-5.55,1.02-9,6.63-7.8,12.08Z"/><path class="j" d="M287.31,872.19c4.89-6.63,13.01-12.66,21.68-10.87,5.57,.78,11.09,3.14,14.63,7.68,6.96,9.27,9.57,22.19,4.47,32.96-2.67,8.61-10.15,15.33-19.22,16.41-5.05,1.5-8.87-2.81-13.57-3.55-1.72-2.83-4.09-5.1-6.26-7.56,.37,10.32,.5,20.69,.32,31.03-4.44-.01-8.87-.12-13.29-.13-1.5-7.45-.26-15.18-.66-22.74,.68-17.84,.49-35.71,0-53.52,4.61-.29,9.26-.56,13.87,.06,.25,3.53-.09,7.12-1.98,10.22Zm10.51,.94c-8.97,3.82-9.62,15.67-7.54,23.86,1.59,7.21,10.18,11.22,16.8,8.09,8.43-3.07,10.87-13.8,8.42-21.63-1.82-7.51-10.31-12.33-17.68-10.32Z"/><path class="j" d="M403.66,863.28c3.89-2.93,9.8-2.03,14.13-.48-.66,3.6-.85,7.27-.63,10.94,3.04-7.3,10.38-13.37,18.63-12.36,.01,4.01-.09,8.03,.2,12.05-4.25-.14-8.51,.53-12.67,1.23-3.79,3.22-6.08,8.36-5.57,13.37,.26,9.75-.4,19.51,.07,29.27-4.48-.14-8.95-.13-13.42-.01-.98-17.96-.56-36.02-.74-54.01Z"/><path class="j" d="M614.97,873.58c2.05-7.7,9.96-12.83,17.75-12.54,1.25,3.89-.42,8.03,.65,12.02-3.66,.71-7.38,1.05-11.03,1.77-3.98,1.85-6.68,6.08-6.82,10.45-.45,10.67,.25,21.37-.43,32.02-4.43-.03-8.85,.01-13.28,.16-.76-18.46-.76-37.11-.22-55.58,4.63,.03,9.53-1.17,13.86,1.08-.58,3.49-.74,7.05-.48,10.61Z"/><path class="j" d="M656.58,871.23c4.44-5.59,11-10.5,18.44-10.29,5.03,.49,10.97,1.5,13.99,6.06,3,4.44,4.67,9.88,4.51,15.27-.1,11.77,.07,23.54,.4,35.31-4.7-.39-9.4-.98-14.12-1.05,.78-10.87,.42-21.79,.22-32.66,.36-8.88-12.63-14.23-18.82-7.99-3,2.7-4.08,6.89-4.3,10.77,.07,10.05,.07,20.1,.07,30.16-4.56-.58-10.03,.78-14.03-.97-.17-17.42,.06-34.91,.42-52.27,.56-2.6,3.84-1.77,5.75-2.19,2.8-.53,5.46,.48,7.89,1.82-.17,2.65-.32,5.33-.43,8.03Z"/><path class="j" d="M708.89,872.83c9.2-15.8,35.43-15.54,45.13-.43,3.96,6.08,5.35,13.18,4.74,20.21-1.57,1.46-4.07,.52-5.98,.84-11.39-.03-22.78-.03-34.17-.35-.27,3.94,.17,8.49,3.62,11.04,5.81,5.32,14.53,3.17,20.85,.01,.39-2.15,1.18-4.53,3.95-3.78,2.62,1.98,5.97,1.34,9.04,1.64,1.23,3.34-2.03,6.1-4.04,8.36-8.74,7.84-22.71,10.65-33.13,4.58-14.94-7.3-19.28-28.84-10.01-42.14Zm16.55,.66c-3.79,2.77-7.94,6.82-6.94,11.98,8.98-.13,17.95,.03,26.93-.04,1.23-10.05-11.77-17.46-20-11.94Z"/><path class="j" d="M832.51,861.35c4.89,.46,9.96-.2,14.71,1.38,3.29,6.11,7.25,11.82,10.94,17.69,3.96-5.61,7.18-11.68,11.1-17.3,4.15-2.91,9.82-1.04,14.59-1.59-5.03,9.49-11.38,18.24-17.27,27.19,6.11,9.36,12.33,18.69,18.86,27.77-5.15,.06-10.29,.3-15.43,.13-4.41-5.94-8.09-12.39-12.43-18.35-2.84,7.09-8.51,12.44-12.04,19.06-4.63,.1-9.26,.2-13.86-.06l-.17-1.73c5.91-9.03,12.63-17.5,18.46-26.6-6.14-8.97-12.46-17.92-17.46-27.6Z"/><path class="j" d="M342.04,875.31c6.56-12.9,24.27-17.58,36.91-11.29,8.23,4.44,12.7,13.5,14.33,22.39,.71,2.15,.13,4.34-.61,6.39-3.85,1.08-7.87,.39-11.79,.56-9.47-.12-18.95,.36-28.39-.27-.12,4.93,1.99,10.4,6.73,12.56,5.54,3.22,13.42,2.26,17.63-2.71,3.11-4.86,8.72-.16,13.22-.81,1.21,4.53-3.36,7.81-6.19,10.65-10.86,8.35-28.48,7.6-37.79-2.84-8.62-9.08-9.8-23.76-4.07-34.63Zm9.99,9.63c9.08-.03,18.17-.04,27.25,.09-.23-1.96-.45-3.89-.72-5.8-.55-.61-1.66-1.79-2.22-2.38-2.29-4.61-8.33-5.35-12.93-5.06-5.91,1.72-10.09,7.3-11.38,13.15Z"/><path class="j" d="M501.06,862.01c8.26-1.2,16.51,3.65,20.62,10.71,3.23,5.57,4.67,12.04,5,18.41-1.34,6.19-2.61,13.84-7.14,18.14-3.85-3.13-9.11-3.45-12.92-6.53,8.36-7.22,7.38-23.11-2.94-27.99-3.5-2.05-7.87-2-11.51-.35-1.8,.03-3.56,.01-5.32-.04-.4-1.54-.82-3.09-1.23-4.58,3.81-4.56,9.46-7.51,15.43-7.77Z"/><path class="j" d="M536.41,875.13c.25-4.54-.81-9.27,1.02-13.57,4.2-.12,8.42-.23,12.6,.36,.26,12.15,.04,24.32,.42,36.49,.88,3.76,4.09,6.13,7.4,7.43,1.23-.03,3.65-.06,4.87-.07,5.97-.82,9.07-6.52,9.91-11.98,1.21-10.61-1.12-21.53,1.05-32.04,4.58-.13,9.2-.23,13.8,.06-.45,18.46,.23,36.94,0,55.39-4.58-.13-9.17-.07-13.75,.03,.22-3.36,.63-6.7,.71-10.06-4.17,5.02-9.31,10.06-16.16,10.71-8.95,.61-19.29-4.5-21.11-13.99-1.41-9.52-.61-19.19-.75-28.76Z"/><path class="j" d="M769.01,876.58c.19-4.87-.29-9.83,.78-14.62,4.27-.26,8.98-1.28,12.92,.94-.07,3.45-.49,6.95,.22,10.37,.36,2.28,.88,4.54,1.14,6.85-1.67,11.91-.52,24.14-.61,36.17-4.77,.37-9.56,.12-14.33,.2-.36-13.29-.22-26.6-.12-39.91Z"/><path class="j" d="M782.93,873.26c2.19-7.74,10.27-12.77,18.21-12.08,.13,4.33,.17,8.68,.25,13.03-3.69-.09-7.43-.43-11.09,.23-2.77,.91-4.3,3.69-6.23,5.67-.26-2.31-.78-4.57-1.14-6.85Z"/><path class="j" d="M480.11,868.19c1.11,.72,2.22,1.5,3.37,2.19l2.15-.59c.4,1.5,.82,3.04,1.23,4.58,1.76,.06,3.52,.07,5.32,.04-10.4,5.05-11.32,20.53-3.26,28.13,4.53,5.26,12.64,4.01,17.71,.2,3.81,3.09,9.07,3.4,12.92,6.53-5.82,8.52-18.56,11.49-27.35,5.91-3.29-1.59-4.07-6.89-8.25-6.55-.04,2.77,.03,5.59-.17,8.39l-.2-.62c-.32-3.76-2.11-6.88-4.37-9.78-1.41-6.17,.42-12.49-.06-18.73-.19-6.56-1.83-13.5,.97-19.72Z"/><path class="j" d="M251.46,878c5.59,6.79,3.49,16.58,1.61,24.44,.52-5.48-2.85-10.76-1.02-16.16,1.07-2.75-.09-5.55-.59-8.28Z"/></g><g><path class="aj" d="M422.19,38.3c4.65-1.89,8.18-5.61,12.34-8.31,24.25,12.32,47.89,25.96,72.11,38.41,16.99,9.74,33.89,19.65,51.56,28.14,22.53,12.94,45.89,24.3,68.32,37.44,16.53,8.01,32.33,17.43,48.59,26.01,10.35,6.83,22.27,10.81,32.56,17.73,7.93,5.2,17.17,8.32,24.66,14.09-47.09,25.72-93.53,52.67-140.9,77.91-19.25,10.47-38.23,21.46-57.58,31.8-9.82,5.17-18.95,11.62-29.19,15.95-19.64-9.09-38.01-20.61-57.24-30.48-31.8-17.43-63.67-34.75-95.29-52.52-41.71-22.84-83.62-45.32-125.2-68.39-6.03-3.85-12.63-6.63-18.99-9.88l-.6-.34c12.29-9.18,26.9-14.3,39.83-22.42,9.51-5.04,18.84-10.4,28.19-15.72,11.61-5.41,22.58-12.01,33.63-18.42,19.49-9.96,38.05-21.64,57.51-31.65,6.97-2.41,12.7-7.18,19.39-10.16,12.18-6.23,23.62-13.95,36.3-19.2Z"/><path class="t" d="M207.95,156.2c6.36,3.25,12.96,6.03,18.99,9.88,41.58,23.07,83.49,45.55,125.2,68.39,31.62,17.77,63.49,35.1,95.29,52.52,19.23,9.87,37.6,21.39,57.24,30.48,10.24-4.32,19.38-10.78,29.19-15.95,19.34-10.34,38.33-21.33,57.58-31.8,47.37-25.24,93.81-52.2,140.9-77.91,.08,4.11,1.17,8.31,.41,12.4-4.16,3.23-9.09,5.25-13.7,7.72-.24,1.98-.46,3.97-.62,5.95-.78,7.23-.18,14.52-.59,21.77-1.43,2.5-4.45,3.46-6.78,4.93-13.51,6.73-26.66,14.13-39.68,21.73-43.22,23.26-86.58,46.3-128.94,71.1-10.19,5.79-21.34,9.85-31.11,16.37,.5,3.28,1.37,6.49,2.5,9.62,23.81-13.33,47.71-26.55,71.69-39.6,15.02-9.2,31.1-16.48,46.38-25.23,18.69-9.9,36.77-20.94,55.74-30.35,14.6-7.35,28.43-16.14,43.21-23.15l1.19-.59c.21,4.81,3.04,12.27-3.15,14.37-17.47,8.89-34.62,18.38-51.59,28.2-36.28,19.39-71.9,40-108.2,59.35-20.66,12.16-42.3,22.56-63.07,34.51-5.93-1.27-10.73-5.38-16.06-8.03-16.39-8.39-32.53-17.21-48.52-26.32-56.21-31.19-113.51-60.42-169.33-92.31-18.52-10.18-37.47-19.49-56-29.63-3.38-1.69-6.66-3.54-10.01-5.28-4.08-20.86-2.81-42.51,1.87-63.15Z"/><path class="at" d="M717.83,239.66c.41-7.25-.2-14.53,.59-21.77,1.64,7.59,.16,15.38,1.11,23.03,3.82,1.58,8.62,.29,11.31,4.16-14.78,7.01-28.61,15.8-43.21,23.15-18.97,9.41-37.05,20.45-55.74,30.35-15.28,8.75-31.36,16.03-46.38,25.23-23.98,13.05-47.87,26.27-71.69,39.6-1.14-3.14-2-6.34-2.5-9.62,9.77-6.52,20.92-10.58,31.11-16.37,42.36-24.81,85.72-47.84,128.94-71.1,13.02-7.61,26.17-15,39.68-21.73,2.32-1.46,5.35-2.42,6.78-4.93Z"/><path class="as" d="M207.17,231.43c3.62-1.43,4.75-6.53,8.92-6.79,18.53,10.14,37.49,19.46,56,29.63,55.82,31.89,113.12,61.12,169.33,92.31,16,9.1,32.14,17.93,48.52,26.32,5.33,2.65,10.13,6.76,16.06,8.03,20.77-11.95,42.41-22.35,63.07-34.51,2.73,1.97,.18,3.93-1.07,5.79,1.5,.52,3.09,.46,4.67,.46l.07,2.15c-1.98,1.48-4.45,2.31-6.16,4.11l-.18,1.85c-21.98,10.21-42.54,23.15-63.97,34.43-11.15,6.71-22.51,13.07-33.75,19.62-26.27-15.13-53.77-27.94-79.88-43.32-14.4-7.14-28.2-15.38-42.52-22.64-18.78-11.25-38.7-20.37-57.46-31.62-26.25-13.85-52.2-28.3-78.42-42.23-13.57-7.61-27.76-14.01-41.34-21.62l-.91-.5c13.3-6.66,25.52-15.18,39.01-21.46Z"/><path class="av" d="M169.06,253.39c13.57,7.61,27.76,14.01,41.34,21.62,26.22,13.93,52.16,28.38,78.42,42.23,18.76,11.25,38.69,20.37,57.46,31.62,14.32,7.27,28.12,15.51,42.52,22.64,26.11,15.38,53.61,28.19,79.88,43.32,11.23-6.55,22.6-12.91,33.75-19.62,21.42-11.28,41.99-24.22,63.97-34.43,.11,13.51,.13,27.03,.1,40.56-10.05,3.79-18.89,9.98-28.27,15.09-20.37,11.1-40.77,22.16-61.25,33.08-.1,3.23,.76,6.34,2.1,9.28,19.28-10.19,38.28-20.99,57.53-31.31,9.69-5.74,19.59-11.09,29.89-15.62,.02,4.6-.02,9.22-.03,13.82-28.22,13.15-54.5,30.02-82.35,43.91-4.63,2.49-8.94,5.62-13.91,7.45-4.28,.02-7.92-2.73-11.59-4.57-11.35-6.78-23.51-11.98-34.92-18.63-35.55-18.3-70.29-38.12-105.47-57.14-28.56-14.53-56.54-30.17-84.82-45.24-17.9-10.86-36.97-19.65-54.89-30.41-3.76-3.32-10.18-2.86-12.79-7.28-2.15-11.33-2.49-23.03-1.56-34.51,1.56-8.62,2.91-17.3,4.91-25.85Z"/><path class="ar" d="M656.76,307.17c28.07-16.61,57.06-31.63,84.98-48.52,46.8,26.76,94.35,52.33,140.66,79.88-8.26,5.9-17.28,10.52-26.14,15.41-27.44,16.09-55.38,31.28-82.97,47.11-21.94,12.29-43.61,25.08-65.7,37.11-28.84-17.62-58.93-33.11-88.06-50.23-17.56-9.82-35.05-19.83-52.96-29,1.71-1.8,4.18-2.63,6.16-4.11,27.73-16.37,55.94-31.89,84.02-47.64Z"/><path class="v" d="M178.51,321.03c17.93,10.76,37,19.56,54.89,30.41,28.28,15.07,56.26,30.71,84.82,45.24,35.18,19.02,69.91,38.83,105.47,57.14,11.41,6.65,23.57,11.85,34.92,18.63,3.67,1.84,7.31,4.58,11.59,4.57,4.97-1.82,9.28-4.96,13.91-7.45,27.85-13.88,54.13-30.76,82.35-43.91-.02,2.94,0,5.9,.03,8.86-28.9,14.01-56.5,30.54-85.05,45.22-6.5,3.2-12.24,7.9-19.1,10.32-8.53-2.7-15.69-8.58-23.9-12.14-18.52-8.7-35.83-19.65-54.11-28.79-30.56-15.93-60.58-32.87-91.1-48.86-41.7-23.67-84.09-46.12-126.66-68.13,3.87-3.84,8.55-6.79,11.93-11.12Z"/><path class="n" d="M166.58,332.15c42.57,22.01,84.97,44.46,126.66,68.13,30.51,16,60.54,32.93,91.1,48.86,18.29,9.14,35.6,20.09,54.11,28.79,8.21,3.56,15.36,9.44,23.9,12.14,6.86-2.42,12.6-7.12,19.1-10.32,28.54-14.68,56.15-31.21,85.05-45.22,.02,13.41,.05,26.82,.05,40.22-24.45,13.13-48.7,26.59-73.31,39.44-7.43,4.16-15,8.1-22.01,12.97,.49,3.19,1.22,6.36,2.34,9.41,13.78-9.61,29.99-14.87,43.95-24.16,8.1-5.12,17.07-8.63,25.18-13.72,7.58-4.73,15.57-8.71,23.85-12.08-.03,3.82-.08,7.66-.18,11.49-32.92,17.3-65.18,35.79-97.92,53.43-2.36,1.06-4.89,3.58-7.51,1.64-15.7-8.32-31.23-17-47.03-25.16-18.37-10.03-36.97-19.6-55.35-29.59-30.4-15.67-60.03-32.77-90.4-48.52-22.38-12.34-44.96-24.37-67.48-36.46-2.78-1.64-5.64-3.15-8.68-4.19-8.36-4.63-16.76-9.35-24.87-14.43-4.36-2.47-3.02-8.11-3.97-12.21-2.5-16.92,.47-33.83,3.41-50.46Z"/><path class="b" d="M856.26,353.93c8.86-4.89,17.88-9.51,26.14-15.41l1.02-.65c-.23,117.27-.5,234.6,.03,351.92-.47,4.54,.91,9.64-.68,13.87-57.79,32.54-115.69,64.88-173.95,96.59-2.84-16.6-.67-33.55-.73-50.28-.2-42.25,.02-84.5-.07-126.74-.47-23.31,.65-46.64-.68-69.91-.44-22.76,.67-45.5-.1-68.24-.02-15.64-.39-31.29,.34-46.91,22.09-12.03,43.76-24.82,65.7-37.11,27.59-15.83,55.53-31.02,82.97-47.11Z"/><path class="ag" d="M708.82,800.24c-2.84-16.59-.66-33.55-.73-50.28-.19-42.24,.02-84.5-.06-126.74-.47-23.31,.65-46.64-.68-69.92-.44-22.76,.66-45.5-.1-68.24-.02-15.64-.39-31.3,.34-46.92-28.84-17.62-58.93-33.12-88.06-50.23-17.56-9.82-35.05-19.83-52.96-28.99l-.18,1.85c.12,13.5,.14,27.03,.1,40.55-.04,3.5,0,7,0,10.52,.02,4.6-.02,9.22-.04,13.82,0,2.94,0,5.9,.04,8.86,.02,13.41,.05,26.82,.05,40.22v11.87c-.03,3.81-.08,7.66-.17,11.49-.64,12.74,.68,25.54-.62,38.25,.62,1.79,1.04,3.62,1.26,5.53-.36,28.15,.02,56.34-.12,84.51,.34,32.16-.59,64.34,.24,96.5,5.19,2.52,10.44,4.95,15.38,7.94,9.35,5.97,19.3,10.88,28.95,16.32,30.53,17.15,61.07,34.3,91.66,51.32,1.85,.87,3.58,2.48,5.78,2.23l-.08-.46Zm-98.87-94.07c.2,4.52-5.1,7.96-9.15,5.85-6.65-3.14-10.01-10.55-11.76-17.31-1.12-4.11,.32-10.48,5.45-10.75,9.97,1.18,16.24,12.78,15.45,22.21Zm30.47-20.32c-6.98,.33-11.75-6.18-14.35-11.88-2.03-4.46-3.42-10.99,.81-14.58,6.97-3.4,14.22,3.73,16.96,9.8,2.67,5.21,3.75,14.68-3.42,16.67Zm38.13,62.5c-2.45,5.14-9.86,3.42-12.79-.41-6-5.67-11.51-16.69-4.72-23.62,4.98-3.09,10.48,1.46,13.39,5.38,3.62,5.23,6.93,12.37,4.11,18.65Z"/><path class="ax" d="M587.23,397.68c1.85,.96,3.72,1.95,5.54,3.06,13.44,8.24,27.73,15,41.22,23.2,12.19,6.66,23.91,14.16,36.23,20.6,5.62,3.01,11.25,6.03,16.52,9.64,.11,4.88,.16,9.79-.02,14.68-7.31-2.58-13.77-6.97-20.56-10.58-21.6-12.68-43.56-24.69-65.44-36.85-4.58-2.57-9.15-5.14-13.72-7.71-.07-5.04-.08-10.08,.18-15.1l.05-.93Z"/><path class="ag" d="M580.08,408.23c-.54-4.54,4.37-6.86,7.1-9.62-.26,5.02-.24,10.06-.18,15.1,4.57,2.57,9.14,5.14,13.72,7.71-.44,3.82-.7,7.87-3.3,10.94-6.66-3.56-13.12-7.46-19.65-11.25,3.53-3.41,2.16-8.5,2.31-12.87Z"/><path class="au" d="M538.22,416.42c9.38-5.1,18.22-11.3,28.27-15.09-.03,3.49,0,7.01,0,10.52-10.31,4.54-20.21,9.88-29.89,15.62-19.25,10.32-38.25,21.12-57.53,31.31-1.33-2.94-2.19-6.05-2.1-9.28,20.48-10.92,40.88-21.98,61.25-33.08Z"/><path class="o" d="M575.6,419.96l2.18,1.14c6.53,3.79,12.99,7.69,19.65,11.25,27.23,15.67,54.65,30.98,81.94,46.54,5.77,3.14,11.3,6.73,17.33,9.4,.07,1.3,.2,3.87,.26,5.17-2.97-1.46-5.87-3.07-8.7-4.76-4.47-2.68-9.07-5.09-13.62-7.62-25.42-14.6-50.9-29.1-76.6-43.21-7.41-4.37-15-8.45-22.4-12.83-.02-1.27-.03-3.8-.05-5.07Z"/><path class="k" d="M586.83,444.66c1.14,.46,3.4,1.38,4.52,1.84,25.91,15.48,52.62,29.57,78.63,44.88,5.48,3.15,11.17,5.95,16.39,9.56-.07,5.1-.03,10.22-.16,15.33-3.64-1.89-7.18-3.89-10.68-5.98-29-15.65-57.07-32.97-86.27-48.23-.62-.31-1.84-.89-2.45-1.19-.16-5.41-.2-10.81,.03-16.21Z"/><path class="c" d="M575.74,467.14c3.66,1.41,7.04,3.43,10.35,5.56,26.64,15.77,53.82,30.61,80.66,46.07,9.23,4.93,18.22,10.31,27.37,15.39,1.84,1.02,2.73,2.7,2.68,5.01-2.75,.6-4.7-1.74-6.92-2.78-22.48-12.71-45.01-25.31-67.53-37.97-10.86-6.24-21.75-12.42-32.66-18.56-4.75-2.57-9.31-5.41-14.01-8.05,.02-1.15,.03-3.49,.05-4.67Z"/><path class="aw" d="M493.23,514.18c24.61-12.84,48.86-26.3,73.31-39.44v11.87c-8.27,3.36-16.27,7.35-23.85,12.08-8.11,5.09-17.08,8.6-25.18,13.72-13.96,9.28-30.17,14.55-43.95,24.16-1.12-3.06-1.85-6.23-2.34-9.41,7.01-4.88,14.58-8.81,22.01-12.97Z"/><path class="y" d="M586.41,491.68l1.04,.42c7.09,3.51,13.88,7.59,20.84,11.35,25.8,14.5,51.77,28.74,77.29,43.73l1.4,.93c-.05,5.01,0,10.03-.16,15.04-2.21-.34-4.18-1.32-5.98-2.54-31.24-18.19-62.76-35.92-94.41-53.37,.07-5.19-.13-10.39-.02-15.56Z"/><path class="ag" d="M586.42,507.24c31.65,17.44,63.17,35.18,94.41,53.37-10.84,3.1-20.89-4-29.91-9.07-9.18-6.78-18.94-12.86-29.47-17.36-12.48-5.06-23.98-12.52-33.58-21.98-1.56-1.28-2.05-2.94-1.45-4.96Z"/><path class="ak" d="M198.99,511.3c5.92,3.71,9.43,9.98,14.4,14.76,8.89,9.17,17.15,18.92,25.9,28.24,.44,.46,1.33,1.4,1.77,1.85-1.28,2.5-2.57,5.01-3.85,7.53l-1.76-1.89c-12.78-13.65-24.92-27.89-37.86-41.42,.1-3.07,.6-6.11,1.4-9.07Z"/><path class="z" d="M565.74,536.35c-34.91,19.77-70.43,38.41-105.71,57.52l-1.24,.68,.32-1.38c-8.81-4.14-17.24-9.12-26.34-12.64-2.54-1.66-5.12-3.24-7.79-4.66-18.74-9.64-36.97-20.17-55.6-30.06-12.59-7.2-25.59-13.58-38.18-20.77-12.28-5.68-23.64-13.09-35.77-19.05-11.98-6.57-24.4-12.33-36.12-19.36-8.4-3.78-16.25-8.6-24.41-12.83-5.35-2.71-10.42-5.95-15.61-8.97-18.63-9.75-37.21-19.62-55.33-30.29-2.49-1.83-4.86-3.81-7.27-5.72,11.82-6.43,23.91-12.39,35.3-19.56,3.05,1.04,5.9,2.56,8.69,4.19,22.51,12.09,45.09,24.12,67.48,36.46,30.37,15.75,59.99,32.85,90.4,48.52,18.38,9.98,36.97,19.56,55.35,29.59,15.8,8.15,31.33,16.84,47.02,25.16,2.62,1.93,5.15-.59,7.51-1.64,32.74-17.63,65.01-36.13,97.93-53.43-.64,12.74,.68,25.54-.62,38.25Z"/><path class="aa" d="M280.79,542.92l2.13,.33c7.3,3.82,14.6,7.62,21.67,11.88-8.97,7.4-19.46,15.09-22.22,27.05-.36,.52-1.11,1.56-1.46,2.08,.21-13.77,.99-27.59-.11-41.34Z"/><path class="m" d="M197.75,547.39c8.96,6.92,15.48,16.43,23.78,24.09,7.23,8.49,15.51,16,22.99,24.27l.98,1.04c-.89,1.9-1.77,3.82-2.67,5.75-3.51-4.16-7.43-7.97-10.86-12.18-3.69-4.41-7.67-8.52-11.59-12.7-7.35-8.34-14.86-16.5-22.81-24.24,.05-1.51,.13-4.54,.18-6.05Z"/><path class="aq" d="M261.1,551.65c7.98,4.6,13.31,12.65,16.5,21.1,1.01,7.35,.02,14.79,.11,22.19-5.09-6.13-10.48-11.96-15.7-17.95l-.47-.5c3.77-7.92,.37-16.65-.44-24.84Z"/><path class="ae" d="M304.58,555.13c9.77,4.39,19,9.85,28.43,14.94-3.93,14.37,.62,31,11.7,40.98,5.35-9.8,13.72-18.99,25.33-20.66,.98,.57,2.89,1.72,3.85,2.29-4.32,4.19-5.38,10.34-6.42,16.01-1.48,12.24,1.25,24.82,6.88,35.75,1.46,2.94,3.49,5.72,6.57,7.15,4.45-3.93,6.79-9.57,6.49-15.51,3.8,.6,3.98,5.02,5.33,7.9,4.93,15.04,8.24,32.09,2.47,47.34-4.57,9.23-12.52,16.56-22.56,19.34-4.8,2.39-9.46-1.07-13.51-3.32l-1.19-.68c3.97-2.7,8.16-5.79,9.57-10.63,3.22-9.33-1.46-18.69-3.46-27.75,.6-14.09-6.14-27.13-15.02-37.63-1.35-1.33-2.88-2.44-4.55-3.32-.21,5.59,.52,11.2,0,16.79-.34,4.18-4.52,8.79-8.97,7.1-4.18-3.92-5.66-9.79-9.02-14.3-8.13-11.46-14.39-24.35-16.35-38.36-5.36,5.71-6.84,13.88-10.27,20.76-3.85-4.65-8.31-8.73-12.6-12.94-3.33-3.3-6.42-6.84-9.05-10.73,1.02-3.19,1.24-6.52,1.59-9.8,.28-.41,.81-1.19,1.09-1.59,.36-.52,1.11-1.56,1.46-2.08,2.76-11.96,13.25-19.65,22.22-27.05Z"/><path class="q" d="M237.21,563.68c1.28-2.52,2.57-5.02,3.85-7.53,6.76,6.84,13.49,13.72,20.48,20.34l.47,.5c-2.47,1.77-4.89,3.59-7.3,5.45l-.52-.55c-5.59-6.13-11.33-12.13-16.99-18.21Z"/><path class="ao" d="M344.72,611.05c-11.09-9.98-15.64-26.61-11.7-40.98,12.13,7.17,24.84,13.26,37.03,20.32-11.61,1.67-19.98,10.86-25.33,20.66Z"/><path class="i" d="M254.71,582.44c2.41-1.85,4.83-3.67,7.3-5.45,5.22,5.98,10.61,11.82,15.7,17.95,.13,.18,.37,.54,.5,.72,2.63,3.89,5.72,7.43,9.05,10.73-1.37,2.03-2.71,4.08-4.05,6.13-2.73-2.71-5.43-5.45-7.97-8.31-7.15-6.97-13.93-14.27-20.55-21.77Z"/><path class="an" d="M244.52,595.75c3.27-4.6,6.53-9.18,9.67-13.87l.52,.55c6.62,7.49,13.39,14.79,20.55,21.77-1.09,3.61-1.82,7.33-1.79,11.14-.73-1.69-1.48-3.36-2.24-5.01-3.48,1.12-5.22,4.5-7.31,7.22-6.24-6.83-12.18-13.93-18.42-20.76l-.98-1.04Z"/><path class="h" d="M373.9,592.68c1.12,.63,2.28,1.25,3.43,1.87,10.7,5.36,22.45,11.14,27.16,23,1.3,2.78,2.52,5.64,3.51,8.57,.81,23.96,.16,47.95,.33,71.93-4.34-2.32-8.73-4.55-13.12-6.73,5.77-15.25,2.45-32.3-2.47-47.34-1.35-2.88-1.53-7.3-5.33-7.9,.31,5.93-2.03,11.57-6.49,15.51-3.07-1.43-5.1-4.21-6.57-7.15-5.62-10.92-8.36-23.51-6.88-35.75,1.04-5.67,2.1-11.82,6.42-16.01Z"/><path class="s" d="M582.51,730.83c-13.74,7-26.78,15.28-40.51,22.29-27.49,14.33-54.82,28.98-82.13,43.64-.94-1.49-1.88-2.96-2.83-4.42,2.3-10.53,.71-21.36,2.38-31.94-1.14-7.22-.87-14.52-.42-21.76,.69-38,.57-75.98,.34-113.97-.14-2.91-.52-5.78-.81-8.65,.16-7.15-.83-14.35,.27-21.47l1.24-.68c35.28-19.11,70.79-37.75,105.71-57.52,.62,1.79,1.04,3.62,1.26,5.53-.36,28.15,.02,56.34-.12,84.51,.34,32.16-.59,64.34,.24,96.5,5.19,2.52,10.44,4.95,15.38,7.94Z"/><path class="d" d="M245.5,596.79c6.24,6.83,12.18,13.93,18.42,20.76l-.41,.54c-.91,1.15-1.82,2.31-2.75,3.46-5.82-5.92-11.54-11.96-17.15-18.09l-.78-.91c.89-1.93,1.77-3.85,2.67-5.75Z"/><path class="al" d="M299.87,619.32c3.43-6.88,4.91-15.05,10.27-20.76,1.97,14.01,8.23,26.9,16.35,38.36,3.36,4.52,4.84,10.39,9.02,14.3,4.45,1.69,8.63-2.93,8.97-7.1,.52-5.59-.21-11.2,0-16.79,1.67,.88,3.2,1.98,4.55,3.32,8.88,10.5,15.62,23.54,15.02,37.63-2.37,5.45-4.84,10.94-8.63,15.57-3.17,3.58-3.82,8.44-5.36,12.79,1.56-9.1,.07-18.37-3.54-26.79-5.69,3.41-12.09,9.48-19.07,5.35-9.2-3.58-5.58-14.73-6.03-22.24,2.6,1.4,6.81,6.05,8.86,1.69-1.54-2.49-3.4-4.75-5.23-7.01-8-8.86-15.88-17.82-23.83-26.74-.33-.41-1.01-1.19-1.35-1.59Z"/><path class="ag" d="M592.84,602.68c6-2.47,11.92,2.28,17.39,4.36,4.88,4.96,8.03,13.52,3.9,19.95-4.93,7.79-17.73,8.62-22.42,.1-1.27-4.96-2.55-9.93-3.48-14.96,.89-3.28,1.8-7.31,4.6-9.44Zm1.61,3.14c-6.26,5.54-1.4,14.99,3.66,19.62,2.97,3.51,9.95,3.07,10.48-2.24,1.14-7.71-5.12-19.33-14.14-17.38Z"/><path class="ay" d="M243.61,603.46c5.61,6.13,11.33,12.18,17.15,18.09-1.06,6.39-2.52,13.22-.08,19.47,1.69,4.47,3.33,9.01,3.85,13.8-15.77-8.7-22.9-28.02-22.51-45.24,.46-2.06,1.02-4.11,1.59-6.13Z"/><path class="ap" d="M273.47,615.34c-.03-3.8,.7-7.53,1.79-11.14,2.54,2.86,5.23,5.59,7.97,8.31,4.36,4.16,8.01,8.99,11.96,13.56-2.73,1.54-5.88,4.45-9.18,2.8-3.61-3.01-6.97-6.27-10.81-8.97-.55-1.53-1.12-3.06-1.72-4.55Z"/><path class="x" d="M594.45,605.81c9.02-1.95,15.28,9.67,14.14,17.38-.54,5.32-7.51,5.75-10.48,2.24-5.06-4.63-9.92-14.08-3.66-19.62Z"/><path class="f" d="M287.27,606.38c4.29,4.21,8.75,8.29,12.6,12.94,.34,.41,1.02,1.19,1.35,1.59-1.22,2.18-2.44,4.39-3.62,6.62-.6-.37-1.8-1.11-2.41-1.46-3.95-4.57-7.61-9.4-11.96-13.56,1.33-2.05,2.68-4.1,4.05-6.13Z"/><path class="g" d="M263.91,617.55c2.1-2.71,3.84-6.1,7.31-7.22,.76,1.64,1.51,3.32,2.24,5.01,.6,1.5,1.17,3.02,1.72,4.55,.99,3.45,1.2,7.09,.1,10.55-4.41-3.66-7.88-8.23-11.79-12.35l.41-.54Z"/><path class="ag" d="M664.5,616.77c-.42-2.99,2.8-5.87,5.69-4.42,6.6,2.96,10,11.22,7.07,17.98-7.88,2.71-13.49-6.71-12.76-13.56Z"/><path class="ah" d="M260.76,621.55c.93-1.15,1.84-2.31,2.75-3.46,3.9,4.13,7.38,8.7,11.79,12.35,7.38,6.39,14.06,13.52,21.16,20.24,4.75-2.19,8.16-6.29,10.35-10.96,2.89,3.71,5.41,8.1,9.64,10.45,3.22,1.76,6.14-.65,8.6-2.52,1.84,2.26,3.69,4.52,5.23,7.01-2.05,4.36-6.26-.29-8.86-1.69,.46,7.51-3.17,18.66,6.03,22.24,6.97,4.13,13.38-1.93,19.07-5.35,3.61,8.42,5.1,17.69,3.54,26.79-.55,1.61-1.12,3.22-1.72,4.83-10.35-6.19-21.38-11.1-31.94-16.86,.15-1.89,.29-3.84-.94-5.38-5.19-8.73-10.65-17.47-17.99-24.56-2-2-4.81-2.68-7.31-3.71,.26,1.35,.54,2.71,.81,4.08-2.89,3.67-4.5,8.06-5.15,12.68-3.59-1.98-7.02-4.19-10.6-6.14-.42-7.35-2.19-15.1,1.4-21.96-4.83-6.4-9.88-12.68-15.85-18.08Z"/><path class="am" d="M275.19,619.89c3.84,2.7,7.2,5.97,10.81,8.97,3.3,1.66,6.45-1.25,9.18-2.8,.6,.36,1.8,1.09,2.41,1.46,3.87,3.4,6.31,8.01,9.22,12.19-2.19,4.67-5.61,8.76-10.35,10.96-7.1-6.71-13.78-13.85-21.16-20.24,1.11-3.46,.89-7.1-.1-10.55Z"/><path class="ad" d="M260.76,621.55c5.97,5.4,11.02,11.67,15.85,18.08-3.59,6.86-1.82,14.61-1.4,21.96-3.8-1.89-7.36-4.15-10.68-6.76-.52-4.8-2.16-9.33-3.85-13.8-2.44-6.26-.98-13.09,.08-19.47Z"/><path class="l" d="M297.59,627.53c1.19-2.23,2.41-4.44,3.62-6.62,7.95,8.92,15.83,17.88,23.83,26.74-2.45,1.87-5.38,4.28-8.6,2.52-4.23-2.36-6.75-6.75-9.64-10.45-2.91-4.18-5.35-8.79-9.22-12.19Z"/><path class="ag" d="M630.23,625.43c8.94-1.64,14.92,9.62,14.47,17.36-.49,4.89-6.57,5.74-9.93,3.27-4.15-3.14-7.58-7.8-7.82-13.13-.36-2.8,.33-6.4,3.28-7.49Z"/><path class="ag" d="M665.96,641.62c4.65,.07,9.61,.67,13.65,3.12,6.26,6.75,8.13,19.17,.44,25.6-4.31,1.87-10.32,5.48-14.35,1.28-6.42-4.93-7.87-13.8-7.33-21.38,1.71-3.38,3.93-7.15,7.59-8.63Zm-1.53,6.78c-3.82,4.16-1.28,10.78,1.61,14.81,2.63,3.9,8.57,8.81,12.81,4.13,2.62-6.68-.76-14.53-6.16-18.81-2.28-1.95-6.11-2.63-8.26-.13Z"/><path class="ab" d="M664.43,648.4c2.15-2.5,5.98-1.82,8.26,.13,5.4,4.28,8.78,12.13,6.16,18.81-4.24,4.68-10.18-.23-12.81-4.13-2.89-4.03-5.43-10.65-1.61-14.81Z"/><path class="u" d="M459.87,796.76c-.94-1.49-1.88-2.96-2.83-4.42,2.3-10.53,.71-21.36,2.38-31.94-1.14-7.22-.87-14.52-.42-21.76,.69-38,.57-75.98,.34-113.97-.14-2.91-.52-5.78-.81-8.65,.16-7.15-.83-14.35,.27-21.47l.32-1.38c-8.81-4.14-17.24-9.12-26.34-12.64-2.54-1.66-5.12-3.24-7.79-4.66-18.74-9.64-36.97-20.17-55.6-30.06-12.59-7.2-25.59-13.58-38.18-20.77-12.28-5.68-23.64-13.09-35.77-19.05-11.98-6.57-24.4-12.33-36.12-19.36-8.4-3.78-16.25-8.6-24.41-12.83-5.35-2.71-10.42-5.95-15.61-8.97-18.63-9.75-37.21-19.62-55.33-30.29-2.49-1.83-4.86-3.81-7.27-5.72-.41,.61-1.24,1.85-1.64,2.47-.47,28.48-.19,56.98-.14,85.47-.31,39.22,.39,78.47-.47,117.67,4.62,2.34,9.08,4.96,13.62,7.47,6.05,3.36,11.98,6.89,18.19,9.94,23,11.38,44.99,24.71,68.03,36.06l-.02,.11c18.46,10.47,37.49,19.9,56.14,29.99,12.72,7.26,25.59,14.24,38.65,20.88,20.77,11.64,42,22.43,62.89,33.84,13.67,7.71,27.78,14.59,41.67,21.88,2.18,1.03,4.13,2.93,6.7,2.87l-.42-.69Zm-56.78-65.53c-2.95,2.02-6.68,1.67-10.05,2.06-2.86-1.73-7.33-2.65-7.98-6.45l-.88,.29c-3.59,.88-6.68-1.53-9.69-3.05-6.82-4.03-13.58-8.19-20.62-11.81-3.62-1.97-7.16-4.11-10.75-6.1-12.07-5.97-23.9-12.38-35.56-19.07-15.74-9.02-32.39-16.29-48.24-25.11-7.07-3.92-13.88-8.34-21.29-11.64l-.18-.85c-5.93-3-11.65-6.47-17.75-9.15l-.7-.38c-9.59-5.21-16.47-14.38-19.91-24.63-2.49-8.53-1.28-17.47-1.4-26.2,.16-11.91-.52-23.82-.52-35.7,.05-1.51,.14-4.53,.18-6.05,.06-8.47,.1-16.9-.21-25.35l.05-1.66c.1-3.07,.61-6.11,1.4-9.07,1.92-5,7.7-8.02,12.89-6.57,6.57,1.85,12.45,5.44,18.44,8.67,1.63,.9,3.26,1.86,4.87,2.84,10.52,6.45,21.28,12.52,32.1,18.46,.69,.34,2.07,1.04,2.77,1.38,4.41,2.14,8.6,4.73,12.86,7.17,7.29,3.81,14.6,7.62,21.66,11.88,9.77,4.38,19.01,9.84,28.43,14.93,12.13,7.18,24.84,13.27,37.03,20.33,.98,.57,2.89,1.72,3.86,2.29,1.12,.63,2.27,1.26,3.43,1.87,10.69,5.37,22.45,11.13,27.16,23,1.3,2.78,2.52,5.64,3.52,8.57,.81,23.96,.16,47.96,.33,71.93,.02,8.27-.18,16.55,.1,24.84-1.27,3.02-2.3,6.58-5.33,8.34Z"/><path class="ac" d="M290.15,650.97c2.5,1.02,5.32,1.71,7.31,3.71,7.35,7.09,12.81,15.83,17.99,24.56,1.24,1.54,1.09,3.49,.94,5.38-.8-.5-2.41-1.48-3.2-1.98l-.76-.49c-5.36-10.31-13.33-18.92-21.47-27.1-.28-1.37-.55-2.73-.81-4.08Z"/><path class="ai" d="M285.81,667.73c.65-4.62,2.26-9.01,5.15-12.68,8.14,8.18,16.11,16.79,21.47,27.1-8.68-5.14-17.85-9.43-26.63-14.42Z"/><path class="e" d="M626.88,659.39c6.97-3.4,14.22,3.74,16.95,9.8,2.67,5.22,3.76,14.68-3.41,16.66-6.97,.34-11.75-6.18-14.35-11.88-2.03-4.45-3.41-10.99,.81-14.58Z"/><path class="r" d="M367.53,696.03c-1.42,4.84-5.61,7.93-9.58,10.63-3.16-1.81-6.44-3.42-9.61-5.19,.61-1.61,1.17-3.22,1.73-4.83,1.55-4.36,2.2-9.22,5.37-12.79,3.79-4.64,6.25-10.13,8.63-15.57,2,9.05,6.68,18.41,3.46,27.75Z"/><path class="af" d="M594.5,683.97c9.96,1.19,16.24,12.78,15.46,22.21,.2,4.52-5.1,7.97-9.15,5.85-6.65-3.14-10.01-10.55-11.75-17.31-1.12-4.11,.31-10.48,5.45-10.74Z"/><g><path class="w" d="M280.79,542.92c1.1,13.76,.32,27.57,.11,41.34-.27,.41-.81,1.18-1.08,1.59-.36,3.28-.57,6.62-1.6,9.81-.13-.18-.37-.54-.5-.72-.1-7.39,.89-14.84-.12-22.19-3.19-8.45-8.51-16.49-16.5-21.09,.81,8.19,4.21,16.92,.44,24.84-6.99-6.62-13.72-13.49-20.48-20.34-.44-.45-1.34-1.4-1.77-1.85-8.75-9.32-17.01-19.07-25.89-28.23-4.98-4.78-8.49-11.05-14.41-14.76,1.92-4.99,7.71-8.02,12.89-6.57,6.57,1.85,12.45,5.45,18.44,8.67,1.63,.91,3.26,1.87,4.88,2.85,10.51,6.45,21.28,12.51,32.1,18.45,.68,.34,2.06,1.04,2.76,1.38,4.41,2.14,8.6,4.73,12.86,7.17l-2.12-.33Z"/><path class="w" d="M408.43,722.88c-1.27,3.03-2.3,6.58-5.33,8.34-2.95,2.03-6.68,1.67-10.05,2.06-2.86-1.73-7.33-2.65-7.98-6.45l-.88,.29c-3.59,.89-6.68-1.53-9.69-3.05-6.82-4.03-13.58-8.19-20.62-11.81-3.62-1.97-7.15-4.11-10.75-6.1-12.07-5.97-23.9-12.38-35.55-19.06-15.75-9.03-32.4-16.3-48.25-25.12-7.07-3.92-13.88-8.34-21.29-11.64l-.18-.85c-5.93-3-11.65-6.46-17.75-9.15l-.7-.38c-9.59-5.21-16.47-14.38-19.91-24.62-2.49-8.54-1.28-17.48-1.4-26.21,.16-11.91-.52-23.82-.52-35.69,7.94,7.74,15.45,15.9,22.8,24.23,3.91,4.18,7.9,8.3,11.59,12.7,3.43,4.21,7.35,8.02,10.86,12.17l.78,.91c-.57,2.02-1.14,4.07-1.59,6.13-.39,17.22,6.74,36.54,22.51,45.24,3.32,2.62,6.88,4.88,10.68,6.77,3.57,1.94,7,4.16,10.59,6.14,8.78,5,17.95,9.28,26.63,14.42l.77,.49c.8,.51,2.4,1.47,3.2,1.98,10.57,5.76,21.59,10.66,31.94,16.86,3.17,1.77,6.44,3.38,9.61,5.19l1.19,.69c4.04,2.24,8.71,5.7,13.5,3.31,10.05-2.77,17.99-10.1,22.57-19.34,4.38,2.18,8.78,4.41,13.11,6.73,.02,8.27-.18,16.55,.1,24.84Z"/><path class="w" d="M254.19,581.88c-3.14,4.68-6.41,9.26-9.67,13.86-7.47-8.27-15.75-15.78-22.98-24.27-8.31-7.66-14.83-17.16-23.79-24.09,.07-8.47,.1-16.91-.21-25.36l.05-1.66c12.94,13.53,25.09,27.76,37.86,41.42,.44,.47,1.32,1.42,1.76,1.89,5.65,6.07,11.39,12.07,16.98,18.2Z"/></g><path class="ag" d="M626.9,705.1c2.78-2.29,6.71-.96,9.17,1.17,5.58,4.76,9.61,11.87,9.66,19.31,.31,3.53-2.71,6.71-6.16,6.96-5.93-.5-9.95-5.62-12.83-10.31-2.86-5.06-4.91-12.76,.16-17.13Z"/><path class="p" d="M661.05,724.33c4.97-3.09,10.47,1.46,13.39,5.38,3.61,5.23,6.92,12.37,4.11,18.65-2.45,5.14-9.87,3.41-12.79-.41-6-5.67-11.51-16.69-4.71-23.62Z"/></g></svg>